<svg width="72" height="72" viewBox="0 0 72 72" fill="none" xmlns="http://www.w3.org/2000/svg">
         <rect width="72" height="72" rx="10" fill="#241A33"></rect>
         <path d="M31.5 26.3508C31.0083 25.6202 30.3798 24.9917 29.6492 24.5001C30.3798 24.0084 31.0083 23.38 31.5 22.6494C31.9916 23.38 32.6201 24.0085 33.3507 24.5001C32.6201 24.9917 31.9916 25.6202 31.5 26.3508Z" fill="white"></path>
         <path fill-rule="evenodd" clip-rule="evenodd" d="M36.1773 23.4867C34.3373 23.1011 32.8991 21.663 32.5134 19.8229C32.4646 19.5903 32.3373 19.3815 32.1527 19.2317C31.9682 19.0818 31.7378 19 31.5001 19C31.2624 19 31.0319 19.0818 30.8474 19.2316C30.6628 19.3815 30.5355 19.5902 30.4867 19.8229C30.1009 21.6629 28.6627 23.101 26.8227 23.4867C26.5901 23.5355 26.3814 23.6629 26.2316 23.8474C26.0818 24.0319 26 24.2623 26 24.5C26 24.7376 26.0818 24.968 26.2316 25.1525C26.3814 25.337 26.5901 25.4644 26.8227 25.5132C28.6626 25.8989 30.1009 27.3371 30.4866 29.1771C30.5354 29.4097 30.6627 29.6185 30.8472 29.7684C31.0317 29.9182 31.2622 30 31.4999 30C31.7376 30 31.9681 29.9182 32.1526 29.7684C32.3371 29.6185 32.4645 29.4097 32.5132 29.1771C32.899 27.3371 34.3372 25.899 36.1773 25.5133C36.4099 25.4645 36.6186 25.3371 36.7684 25.1526C36.9182 24.9681 37 24.7377 37 24.5C37 24.2624 36.9182 24.0319 36.7684 23.8474C36.6186 23.6629 36.4099 23.5356 36.1773 23.4867ZM29.6492 24.5001C30.3798 24.9917 31.0083 25.6202 31.5 26.3508C31.9916 25.6202 32.6201 24.9917 33.3507 24.5001C32.6201 24.0085 31.9916 23.38 31.5 22.6494C31.0083 23.38 30.3798 24.0084 29.6492 24.5001Z" fill="white"></path>
         <path d="M31.5 49.3508C31.0083 48.6202 30.3798 47.9917 29.6492 47.5001C30.3798 47.0084 31.0083 46.38 31.5 45.6494C31.9916 46.38 32.6201 47.0085 33.3507 47.5001C32.6201 47.9917 31.9916 48.6202 31.5 49.3508Z" fill="white"></path>
         <path fill-rule="evenodd" clip-rule="evenodd" d="M36.1773 46.4867C34.3373 46.1011 32.8991 44.663 32.5134 42.8229C32.4646 42.5903 32.3373 42.3815 32.1527 42.2317C31.9682 42.0818 31.7378 42 31.5001 42C31.2624 42 31.0319 42.0818 30.8474 42.2316C30.6628 42.3815 30.5355 42.5902 30.4867 42.8229C30.1009 44.6629 28.6627 46.101 26.8227 46.4867C26.5901 46.5355 26.3814 46.6629 26.2316 46.8474C26.0818 47.0319 26 47.2623 26 47.5C26 47.7376 26.0818 47.968 26.2316 48.1525C26.3814 48.337 26.5901 48.4644 26.8227 48.5132C28.6626 48.8989 30.1009 50.3371 30.4866 52.1771C30.5354 52.4097 30.6627 52.6185 30.8472 52.7684C31.0317 52.9182 31.2622 53 31.4999 53C31.7376 53 31.9681 52.9182 32.1526 52.7684C32.3371 52.6185 32.4645 52.4097 32.5132 52.1771C32.899 50.3371 34.3372 48.899 36.1773 48.5133C36.4099 48.4645 36.6186 48.3371 36.7684 48.1526C36.9182 47.9681 37 47.7377 37 47.5C37 47.2624 36.9182 47.0319 36.7684 46.8474C36.6186 46.6629 36.4099 46.5356 36.1773 46.4867ZM29.6492 47.5001C30.3798 47.9917 31.0083 48.6202 31.5 49.3508C31.9916 48.6202 32.6201 47.9917 33.3507 47.5001C32.6201 47.0085 31.9916 46.38 31.5 45.6494C31.0083 46.38 30.3798 47.0084 29.6492 47.5001Z" fill="white"></path>
         <path d="M23 37.0095C22.7318 36.611 22.389 36.2682 21.9905 36C22.389 35.7319 22.7318 35.3891 23 34.9906C23.2682 35.3891 23.611 35.7319 24.0095 36.0001C23.611 36.2682 23.2681 36.611 23 37.0095Z" fill="white"></path>
         <path fill-rule="evenodd" clip-rule="evenodd" d="M25.5513 35.4473C24.5476 35.237 23.7632 34.4525 23.5527 33.4489C23.5261 33.322 23.4567 33.2081 23.356 33.1264C23.2554 33.0446 23.1297 33 23 33C22.8704 33 22.7447 33.0446 22.644 33.1263C22.5434 33.2081 22.4739 33.3219 22.4473 33.4488C22.2369 34.4525 21.4524 35.2369 20.4487 35.4473C20.3219 35.4739 20.208 35.5434 20.1263 35.644C20.0446 35.7447 20 35.8703 20 36C20 36.1296 20.0446 36.2553 20.1263 36.3559C20.208 36.4566 20.3219 36.526 20.4487 36.5527C21.4523 36.7631 22.2368 37.5475 22.4472 38.5511C22.4738 38.678 22.5433 38.7919 22.6439 38.8737C22.7446 38.9554 22.8703 39 22.9999 39C23.1296 39 23.2553 38.9554 23.356 38.8737C23.4566 38.7919 23.5261 38.678 23.5527 38.5511C23.7631 37.5475 24.5476 36.7631 25.5513 36.5527C25.6781 36.5261 25.792 36.4566 25.8737 36.356C25.9554 36.2553 26 36.1296 26 36C26 35.8704 25.9554 35.7447 25.8737 35.6441C25.792 35.5434 25.6781 35.4739 25.5513 35.4473ZM21.9905 36C22.389 36.2682 22.7318 36.611 23 37.0095C23.2681 36.611 23.611 36.2682 24.0095 36.0001C23.611 35.7319 23.2682 35.3891 23 34.9906C22.7318 35.3891 22.389 35.7319 21.9905 36Z" fill="white"></path>
         <path d="M53.9979 17.9538C53.9724 17.4021 53.5045 16.9755 52.9528 17.0011L43.9624 17.417C43.4107 17.4426 42.9842 17.9105 43.0097 18.4622C43.0352 19.0139 43.5031 19.4404 44.0548 19.4149L52.0463 19.0452L52.416 27.0366C52.4416 27.5883 52.9095 28.0148 53.4612 27.9893C54.0129 27.9638 54.4394 27.4959 54.4139 26.9442L53.9979 17.9538ZM50.7507 52.8421C45.6584 47.0129 43.2795 42.0503 43.6271 36.8716C43.9774 31.6504 47.1126 25.942 53.738 18.6737L52.26 17.3263C45.5539 24.683 42.0288 30.8184 41.6315 36.7377C41.2314 42.6997 44.0176 48.1746 49.2445 54.1579L50.7507 52.8421Z" fill="white"></path>
        </svg>