<svg xmlns="http://www.w3.org/2000/svg" width="163" height="26" viewBox="0 0 163 26" fill="none">
        <path d="M10.77 2.57007L12.7364 7.78807L9.2456 16.9267C10.6254 17.131 12.0218 17.2296 13.4196 17.2214C14.3807 17.223 15.3414 17.1772 16.2971 17.0843L17.4967 20.477C16.2023 20.5957 14.7907 20.6817 13.4377 20.6817C11.6395 20.6776 9.84408 20.5601 8.06396 20.3297L6.07278 25.6255H0L9.49816 2.57007H10.77Z" fill="white" fill-opacity="0.6"></path>
        <path d="M153.214 7.78813C159.329 7.78813 163.001 10.3767 163.001 16.9084C163.001 17.7269 162.976 18.615 162.953 18.7316H148.873C148.848 21.3611 151.313 22.509 155.158 22.509C157.746 22.509 159.81 21.9606 161.201 21.5882L161.427 25.0014C160.274 25.3922 157.78 25.9611 154.375 25.9611C147.626 25.9693 143.019 23.7143 143.019 16.8879C143.019 12.4761 144.938 9.5336 148.823 8.35495V15.5169H157.268C157.291 12.339 155.949 10.966 153.047 10.966C151.694 10.966 150.695 11.2607 150 11.8889V8.06233C151.059 7.87366 152.135 7.78178 153.214 7.78813ZM64.1696 0.667086V16.9084C64.1696 20.3871 64.9611 22.5172 68.391 22.5172C71.8209 22.5172 72.8763 20.3789 72.8763 16.9084C72.8763 13.4379 71.8209 11.2975 68.391 11.2975C66.9523 11.2975 65.9917 11.6699 65.3445 12.3575V8.9054C66.4472 8.27719 67.9355 7.86589 69.974 7.86589C75.1561 7.86589 78.5364 10.5526 78.5364 16.8879C78.5364 23.2314 75.1538 25.8915 69.9267 25.8915C66.6885 25.8915 64.8168 24.8684 63.7615 23.5567L63.4976 25.6173H58.5817V4.0414H56.0854V0.667086H64.1696ZM105.926 7.92114C109.211 7.92114 111.083 8.96064 112.114 10.2744L112.402 8.11553H117.296L117.302 25.6173H111.712V16.9084C111.712 13.4297 110.921 11.2975 107.491 11.2975C104.061 11.2975 103.006 13.4359 103.006 16.9084C103.006 20.3809 104.061 22.509 107.491 22.509C108.932 22.509 109.89 22.1366 110.537 21.4511V24.8643C109.435 25.4905 107.924 25.8874 105.908 25.8874C100.681 25.8874 97.3387 23.2396 97.3387 16.9043C97.3387 10.569 100.674 7.92114 105.926 7.92114ZM17.6079 2.57012L27.106 25.6173H20.7491L12.0898 2.57012H17.6079ZM35.8555 8.11963V22.2389H38.1106V25.6173H30.2744V11.498H27.7803V8.11963H35.8555ZM54.0806 7.80654C54.6167 7.80204 55.1518 7.84808 55.6772 7.94365L55.605 11.9462C55.154 11.9052 54.5497 11.8664 54.0265 11.8664C52.3713 11.8664 51.1965 12.2204 50.3801 12.7688C48.5753 13.9803 48.5109 16.2307 48.5086 17.4614L48.5085 25.6173H42.9408V11.498H40.4445V8.11963H47.8568L48.2176 10.9251C49.2256 9.14072 51.095 7.80654 54.0806 7.80654ZM94.5132 7.80654C95.0531 7.80143 95.5918 7.84727 96.121 7.94365L96.0489 11.9462C95.5979 11.9052 94.9935 11.8664 94.4704 11.8664C92.8152 11.8664 91.6403 12.2204 90.824 12.7688C89.0213 13.9803 88.957 16.2307 88.9547 17.4614L88.9546 25.6173H83.3847V11.498H80.8884V8.11963H88.3006L88.6614 10.9251C89.6694 9.14072 91.5388 7.80654 94.5132 7.80654ZM128.169 0.667086V25.6173H122.581V4.0414H120.087V0.667086H128.169ZM141.632 8.11144L134.79 16.2802L142.491 25.6173H135.943L128.578 16.3702L135.318 8.11144H141.632ZM32.8158 0C34.5431 0 35.8149 1.02314 35.8149 2.43302C35.8149 3.84291 34.5431 4.864 32.8158 4.864C31.0884 4.864 29.8188 3.84495 29.8188 2.43302H29.8121C29.8188 1.02314 31.0884 0 32.8158 0Z" fill="white"></path>
       </svg>