<svg xmlns="http://www.w3.org/2000/svg" width="154" height="42" viewBox="0 0 154 42" fill="none">
        <g clip-path="url(#clip0_1_244)">
         <path fill-rule="evenodd" clip-rule="evenodd" d="M145.644 14.9244C146.808 14.9244 147.726 14.3513 147.726 13.182V2.31445H152.764V13.6634C152.764 17.1025 150.547 18.2489 147.637 18.2489H139.241C138.928 18.2489 138.592 18.1801 138.323 18.0196C138.032 17.8591 137.786 17.6528 137.607 17.3777L136.151 14.9244H145.644ZM104.382 14.9244C105.546 14.9244 106.464 14.3513 106.464 13.182V2.31445H111.479V13.6634C111.479 17.1025 109.263 18.2489 106.352 18.2489H97.9564C97.3071 18.2489 96.7027 17.905 96.322 17.3547L94.8668 14.9015L104.382 14.9244ZM123.726 6.16623L116.92 18.2718H110.964L120.479 2.31445H126.972L136.465 18.2718H130.554L128.942 15.4288H120.144L121.599 12.9756C121.778 12.7005 122.024 12.4712 122.315 12.3337C122.606 12.1732 122.92 12.1044 123.233 12.1044H127.039L123.726 6.16623ZM82.4411 6.16623L75.6126 18.2718H69.6796L79.1947 2.31445H85.6874L95.1802 18.2718H89.2472L87.6576 15.4288H78.8589L80.3142 12.9756C80.4933 12.7005 80.7396 12.4712 81.0306 12.3337C81.3217 12.1732 81.6351 12.1044 81.9486 12.1044H85.7546L82.4411 6.16623ZM54.1195 11.5541V18.2718L55.5524 15.8186C55.7315 15.5435 55.9777 15.3142 56.2688 15.1766C56.5598 15.0162 56.8733 14.9474 57.1867 14.9474H62.7391C63.7914 14.9703 64.6197 14.1908 64.6197 13.2737C64.6197 12.3566 63.8138 11.5771 62.7391 11.5771L54.1195 11.5541ZM54.1195 11.5541L55.5524 9.10092C55.933 8.55067 56.5374 8.20676 57.1867 8.20676H62.8063C63.8138 8.20676 64.6197 7.74822 64.6197 6.94576C64.6197 6.14331 63.8138 5.66183 62.8063 5.66183H54.0971V11.5541H54.1195ZM49.082 18.2718V2.31445H62.8287C65.672 2.31445 70.2169 2.70421 70.2169 6.51014C70.2169 8.36725 68.6273 9.69703 66.7691 10.1556C69.0751 10.8663 70.2169 12.1732 70.2169 13.9615C70.2169 17.8591 65.8959 18.2489 62.8287 18.2489L49.082 18.2718Z" fill="white"></path>
         <path d="M49.0391 23.5674H61.4871V27.465H53.3601V31.2709H60.7259V34.9393H53.3601V39.5477H49.0391V23.5674Z" fill="white"></path>
         <path d="M68.7848 23.5674H64.4414V39.5247H68.7848V23.5674Z" fill="white"></path>
         <path d="M72.5 23.5674H76.53L82.9331 32.0275V23.5674H87.1869V39.5477H83.4257L76.7762 30.7895V39.5477H72.5V23.5674Z" fill="white"></path>
         <path d="M89.6719 37.164L92.0675 34.2293C93.4779 35.4444 95.269 36.1322 97.1049 36.1552C98.2691 36.1552 98.896 35.7425 98.896 35.0546V35.0088C98.896 34.3439 98.381 33.9771 96.2765 33.4727C92.963 32.6931 90.4107 31.7302 90.4107 28.4516V28.4057C90.4107 25.4481 92.6943 23.293 96.4332 23.293C99.0751 23.293 101.135 24.0266 102.836 25.4252L100.665 28.5662C99.2318 27.5345 97.687 26.9843 96.2989 26.9843C95.2466 26.9843 94.7317 27.4428 94.7317 28.016V28.0618C94.7317 28.7955 95.269 29.1165 97.4183 29.6209C101.001 30.4233 103.217 31.6156 103.217 34.5961V34.642C103.217 37.8976 100.709 39.8465 96.9258 39.8465C94.1944 39.8235 91.5749 38.9523 89.6719 37.164Z" fill="white"></path>
         <path d="M106.238 23.5674H118.754V27.3504H110.492V29.7577H117.97V33.2427H110.492V35.7876H118.865V39.5477H106.238V23.5674Z" fill="white"></path>
         <path d="M129.099 31.248C130.577 31.248 131.405 30.5143 131.405 29.345V29.2992C131.405 28.0382 130.509 27.3962 129.077 27.3962H126.256V31.2251H129.099V31.248ZM121.957 23.5674H129.323C131.696 23.5674 133.353 24.2093 134.383 25.3098C135.301 26.2269 135.771 27.465 135.771 29.0241V29.0699C135.771 31.5002 134.495 33.128 132.569 33.9764L136.286 39.5477H131.293L128.159 34.71H126.278V39.5477H121.957V23.5674Z" fill="white"></path>
         <path d="M137.137 23.5674H141.973L145.51 33.6783L149.025 23.5674H153.749L147.435 39.6623H143.45L137.137 23.5674Z" fill="white"></path>
         <path d="M20.5604 0.15918C19.8887 0.15918 19.2395 0.182106 18.5678 0.250887C17.8961 0.319669 17.2469 0.411379 16.5976 0.548942C15.9483 0.686506 15.2991 0.846996 14.6722 1.05334C14.0453 1.25969 13.4184 1.48896 12.7915 1.74116C12.187 1.99336 11.5826 2.29141 11.0005 2.6124C9.83624 3.25436 8.71681 4.01096 7.68693 4.88219C7.17199 5.31781 6.67945 5.77636 6.20928 6.25783C5.73912 6.7393 5.29135 7.2437 4.86597 7.77103C4.44058 8.29835 4.03759 8.84861 3.67937 9.42179C3.29876 9.99497 2.96293 10.5682 2.64949 11.1643C1.70917 12.9755 1.03751 14.9014 0.634514 16.919C0.500182 17.5839 0.410627 18.2717 0.343461 18.9366C0.276295 19.6244 0.253906 20.2893 0.253906 20.9771C0.253906 21.6649 0.298684 22.3298 0.343461 23.0177C0.388238 23.7055 0.500182 24.3704 0.634514 25.0353C1.03751 27.0529 1.70917 28.9787 2.64949 30.79C2.96293 31.3861 3.29876 31.9822 3.67937 32.5325C4.05997 33.0827 4.44058 33.6559 4.86597 34.1832C5.29135 34.7106 5.73912 35.215 6.20928 35.6964C6.67945 36.1779 7.17199 36.6364 7.68693 37.0721C8.71681 37.9433 9.81385 38.6999 11.0005 39.3419C11.5826 39.6628 12.187 39.9609 12.7915 40.2131C13.396 40.4653 14.0229 40.6946 14.6722 40.9009C15.3215 41.1073 15.9483 41.2678 16.5976 41.4053C17.2469 41.5429 17.8961 41.6346 18.5678 41.7034C19.2395 41.7722 19.8887 41.7951 20.5604 41.7951C21.2321 41.7951 21.8813 41.7722 22.553 41.7034C23.2246 41.6346 23.8739 41.5429 24.5232 41.4053C25.1725 41.2678 25.8217 41.1073 26.4486 40.9009C27.0755 40.6946 27.7024 40.4653 28.3293 40.2131C28.9561 39.9609 29.5382 39.6628 30.1203 39.3419C30.7024 39.0209 31.2846 38.677 31.8219 38.2872C32.3816 37.8974 32.8965 37.5077 33.4115 37.0721C33.9264 36.6364 34.419 36.1779 34.8891 35.6964C35.8294 34.7335 36.6802 33.6788 37.419 32.5325C37.7773 31.9593 38.1355 31.3861 38.4489 30.79C38.7624 30.1939 39.0534 29.5749 39.2997 28.9329C39.546 28.3139 39.7698 27.6719 39.9713 27.007C40.1728 26.3421 40.3296 25.7001 40.4639 25.0353C40.5982 24.3704 40.6878 23.6825 40.7549 23.0177C40.8221 22.3298 40.8445 21.6649 40.8445 20.9771C40.8445 20.2893 40.8221 19.6244 40.7549 18.9366C40.6878 18.2488 40.5982 17.5839 40.4639 16.919C40.3296 16.2541 40.1728 15.5892 39.9713 14.9473C39.7698 14.3053 39.546 13.6633 39.2997 13.0214C39.0534 12.3794 38.7624 11.7833 38.4489 11.1643C38.1355 10.5682 37.7996 9.97204 37.419 9.42179C37.0384 8.87154 36.6578 8.29835 36.2324 7.77103C35.3817 6.71637 34.4413 5.75343 33.4115 4.88219C32.8965 4.44658 32.3592 4.03388 31.8219 3.66705C31.2846 3.30021 30.7024 2.93338 30.1203 2.6124C29.5382 2.29141 28.9337 1.99336 28.3293 1.74116C27.7248 1.48896 27.0979 1.25969 26.4486 1.05334C25.8217 0.846996 25.1725 0.686506 24.5232 0.548942C23.8739 0.411379 23.2246 0.319669 22.553 0.250887C21.8813 0.182106 21.2321 0.15918 20.5604 0.15918ZM33.2324 26.3421C33.2324 32.0281 27.0531 32.5554 22.6649 32.5783H18.7245V27.4655H26.5605V23.5679H18.7245V18.2717H27.3889V14.1448H14.1349V32.6012H9.07503V9.39886H22.6649C26.7173 9.39886 33.2324 9.99497 33.2324 15.4746C33.2324 18.18 30.9711 20.1747 28.3293 20.8625C31.598 21.9171 33.2324 23.5679 33.2324 26.3421Z" fill="white"></path>
        </g>
        <defs>
         <clipPath id="clip0_1_244">
          <rect width="154" height="42" fill="white"></rect>
         </clipPath>
        </defs>
       </svg>