<svg xmlns="http://www.w3.org/2000/svg" width="218" height="64" viewBox="0 0 218 64" fill="none">
        <path d="M63.9003 21.4282H73.0405C78.1035 21.4282 80.7321 23.5232 80.7321 27.457V27.653C80.8043 28.8058 80.4641 29.9464 79.7734 30.8674C79.0827 31.7885 78.0874 32.4288 76.9685 32.672C78.3084 32.791 79.5478 33.4387 80.4174 34.4743C81.2871 35.51 81.7168 36.85 81.6133 38.2035V38.3391C81.6133 42.6346 78.8204 44.8955 73.4587 44.8955H63.9003V21.4282ZM72.1892 31.0593C74.7282 31.0593 75.7288 30.1399 75.7288 28.0449V27.9092C75.7288 25.9498 74.6236 25.0606 72.1594 25.0606H69.0379V31.0894L72.1892 31.0593ZM72.6373 41.2028C75.236 41.2028 76.4159 40.0121 76.4159 37.8869V37.7513C76.4159 35.5809 75.236 34.4806 72.3834 34.4806H69.0379V41.2179L72.6373 41.2028Z" fill="white"></path>
        <path d="M82.9875 40.1176C82.9875 36.1085 86.6168 34.6013 91.8291 34.6013H93.7408V33.923C93.7408 31.8883 93.1284 30.7729 90.9778 30.7729C90.6297 30.7312 90.2768 30.7619 89.9408 30.863C89.6049 30.9641 89.293 31.1335 89.0243 31.3608C88.7557 31.5881 88.536 31.8685 88.3788 32.1848C88.2216 32.501 88.1302 32.8463 88.1103 33.1996H83.6297C83.9284 29.1301 87.1096 27.3214 91.2765 27.3214C95.4434 27.3214 98.3856 29.0246 98.3856 33.6819V44.8654H93.8005V42.8005C93.2251 43.6187 92.4493 44.2723 91.5488 44.6976C90.6484 45.1229 89.654 45.3054 88.6628 45.2271C85.5862 45.2271 82.9875 43.7199 82.9875 40.1176ZM93.7408 38.8667V37.3595H91.9187C89.1856 37.3595 87.6025 37.9623 87.6025 39.7861C87.6025 41.037 88.3492 41.866 90.0667 41.866C92.1427 41.9263 93.7408 40.7658 93.7408 38.8667Z" fill="white"></path>
        <path d="M100.372 39.4846H104.763C104.957 40.9918 105.703 41.9263 107.75 41.9263C109.572 41.9263 110.423 41.233 110.423 40.0423C110.423 38.8516 109.407 38.3693 106.973 38.0226C102.492 37.3293 100.7 36.018 100.7 32.672C100.7 29.326 103.956 27.3214 107.421 27.3214C111.2 27.3214 114.022 28.7081 114.44 32.6419H110.124C109.87 31.2251 109.079 30.577 107.466 30.577C105.853 30.577 105.061 31.3005 105.061 32.3404C105.061 33.3804 105.868 33.8477 108.332 34.2094C112.589 34.8273 114.933 35.9125 114.933 39.5901C114.933 43.2677 112.275 45.2271 107.779 45.2271C103.284 45.2271 100.536 43.1924 100.372 39.4846Z" fill="white"></path>
        <path d="M116.143 36.5003V36.2441C116.087 35.0662 116.273 33.8892 116.691 32.7879C117.108 31.6865 117.748 30.6846 118.569 29.8458C119.391 29.007 120.376 28.3495 121.462 27.9149C122.548 27.4804 123.712 27.2783 124.88 27.3214C129.271 27.3214 133.169 29.9138 133.169 36.0481V37.3594H120.967C121.087 40.208 122.625 41.881 125.179 41.881C127.359 41.881 128.435 40.9315 128.733 39.4846H133.214C132.661 43.1923 129.734 45.2572 125.089 45.2572C119.877 45.227 116.143 41.9865 116.143 36.5003ZM128.584 34.4354C128.435 31.843 127.12 30.6674 124.88 30.6674C123.872 30.6626 122.9 31.0525 122.171 31.7551C121.441 32.4578 121.01 33.4185 120.967 34.4354H128.584Z" fill="white"></path>
        <path d="M134.409 36.5002V36.2439C134.352 35.0634 134.539 33.8839 134.959 32.7803C135.378 31.6768 136.02 30.6735 136.845 29.8342C137.67 28.9949 138.658 28.338 139.748 27.9054C140.838 27.4728 142.005 27.2738 143.176 27.3213C147.119 27.3213 150.748 29.0545 151.181 33.9831H146.7C146.671 33.5601 146.557 33.1474 146.366 32.7696C146.175 32.3918 145.911 32.0566 145.589 31.7838C145.267 31.5111 144.894 31.3064 144.493 31.1819C144.091 31.0574 143.668 31.0157 143.25 31.0591C140.816 31.0591 139.188 32.8979 139.188 36.1837V36.4399C139.188 39.8914 140.681 41.6548 143.355 41.6548C143.81 41.6812 144.265 41.616 144.695 41.4631C145.125 41.3101 145.52 41.0724 145.857 40.7638C146.195 40.4552 146.469 40.0819 146.662 39.6656C146.856 39.2493 146.965 38.7983 146.984 38.339H151.241C150.987 42.4084 148.059 45.2269 143.116 45.2269C138.172 45.2269 134.409 42.107 134.409 36.5002Z" fill="white"></path>
        <path d="M152.331 40.1176C152.331 36.1084 155.96 34.6012 161.158 34.6012H163.084V33.923C163.084 31.8882 162.457 30.7729 160.321 30.7729C159.971 30.7267 159.615 30.754 159.275 30.8531C158.936 30.9521 158.62 31.1208 158.348 31.3486C158.076 31.5763 157.854 31.8583 157.695 32.1768C157.536 32.4952 157.444 32.8434 157.424 33.1995H152.943C153.242 29.13 156.423 27.3214 160.575 27.3214C164.727 27.3214 167.699 29.0245 167.699 33.6818V44.8653H163.114V42.8004C162.539 43.6186 161.763 44.2723 160.863 44.6976C159.962 45.1229 158.968 45.3053 157.977 45.227C154.99 45.227 152.331 43.7198 152.331 40.1176ZM163.084 38.8666V37.3594H161.292C158.559 37.3594 156.961 37.9623 156.961 39.786C156.961 41.037 157.723 41.866 159.44 41.866C161.546 41.9263 163.144 40.7657 163.144 38.8666H163.084Z" fill="white"></path>
        <path d="M171.015 27.6529H175.719V30.2754C176.232 29.3437 176.987 28.5706 177.903 28.0395C178.819 27.5084 179.86 27.2392 180.916 27.261C181.924 27.1797 182.931 27.4292 183.787 27.9724C184.643 28.5156 185.302 29.3235 185.666 30.2754C186.293 29.33 187.146 28.5586 188.145 28.032C189.144 27.5053 190.259 27.2402 191.386 27.261C194.537 27.261 196.972 29.2656 196.972 33.8174V44.805H192.297V34.4052C192.297 32.2047 191.326 31.225 189.624 31.225C189.171 31.2051 188.719 31.2841 188.299 31.4565C187.879 31.6289 187.501 31.8908 187.19 32.2241C186.88 32.5575 186.644 32.9546 186.5 33.3882C186.355 33.8218 186.305 34.2818 186.353 34.7368V44.8652H181.663V34.4052C181.663 32.2047 180.663 31.225 179.005 31.225C178.551 31.2029 178.097 31.2802 177.675 31.4516C177.254 31.6231 176.874 31.8846 176.562 32.2182C176.249 32.5518 176.012 32.9497 175.867 33.3844C175.722 33.8192 175.671 34.2805 175.719 34.7368V44.8652H171.015V27.6529Z" fill="white"></path>
        <path d="M200.198 27.6529H204.917V30.3508C205.48 29.4072 206.275 28.6266 207.225 28.0851C208.175 27.5437 209.248 27.2597 210.339 27.2611C214.506 27.2611 217.806 30.381 217.806 36.0481V36.3194C217.806 41.9865 214.625 45.1667 210.339 45.1667C209.249 45.2118 208.167 44.9548 207.211 44.4234C206.255 43.8919 205.462 43.1065 204.917 42.1523V50.7132H200.198V27.6529ZM212.967 36.0933C212.967 32.6116 211.28 30.9085 208.905 30.9085C206.53 30.9085 204.753 32.6418 204.753 36.0933V36.3495C204.753 39.786 206.381 41.459 208.95 41.459C211.519 41.459 212.967 39.7106 212.967 36.4098V36.0933Z" fill="white"></path>
        <path fill-rule="evenodd" clip-rule="evenodd" d="M28.9822 13.2365C15.7296 13.2365 8.81825 24.5647 4.94857 35.6368C4.48078 36.9753 3.02641 37.6776 1.70013 37.2055C0.751516 36.8679 0.125363 36.0209 0.0168443 35.0762C-0.0263593 34.7001 0.0124825 34.3084 0.145686 33.9273C4.07211 22.6928 12.0958 8.09692 28.9822 8.09692C37.8087 8.09692 44.1264 13.9898 48.2123 21.0693C52.309 28.1674 54.4932 36.9565 54.9854 44.0528C55.0208 44.5629 54.9046 45.072 54.6517 45.5151C52.2854 49.6603 48.3488 52.3617 43.8615 54.0163C39.3852 55.6667 34.2001 56.341 29.0027 56.3427C24.587 56.4122 20.2082 55.5204 16.1646 53.7279C12.1147 51.9325 8.49665 49.2759 5.55765 45.9397C4.93242 45.2299 4.74602 44.2301 5.07292 43.3396L5.07484 43.3344L5.07849 43.3245L5.09094 43.2909L5.13603 43.171C5.1749 43.0682 5.23126 42.921 5.30387 42.7355C5.449 42.3648 5.65963 41.84 5.92594 41.212C6.45622 39.9614 7.21805 38.2761 8.13319 36.5744C9.0363 34.8952 10.1468 33.0899 11.3957 31.6676C12.5342 30.371 14.3038 28.7914 16.5688 28.7759L16.5861 28.7758C18.1866 28.7758 19.5014 29.5154 20.4477 30.2263C21.4017 30.9429 22.268 31.8536 22.9622 32.595C23.0419 32.6801 23.1193 32.7629 23.1946 32.8435C23.8411 33.5353 24.3356 34.0644 24.8053 34.4606C24.8581 34.5051 24.9066 34.5444 24.9509 34.5789C25.1036 34.4214 25.2859 34.2149 25.4957 33.9524C26.2421 33.0187 27.0804 31.7033 27.8916 30.2952C28.6921 28.9056 29.4208 27.5058 29.952 26.447C30.2167 25.9194 30.4303 25.4806 30.5769 25.1754C30.6502 25.0228 30.7066 24.9039 30.7443 24.8241L30.7863 24.7347L30.7963 24.7134L30.7984 24.7088C31.3954 23.4239 32.9118 22.8699 34.1851 23.4723C35.4585 24.0746 36.0069 25.6047 35.41 26.8898L35.4045 26.9016L35.3913 26.9299L35.3423 27.0341C35.2999 27.1239 35.2383 27.2536 35.1595 27.4176C35.0021 27.7454 34.7754 28.2109 34.4957 28.7685C33.938 29.8801 33.161 31.3742 32.2944 32.8784C31.4385 34.3641 30.4482 35.9426 29.4597 37.1793C28.9696 37.7925 28.4138 38.4059 27.813 38.8882C27.2818 39.3146 26.3449 39.9443 25.1439 39.9443C23.5558 39.9443 22.3044 39.0494 21.5396 38.4044C20.8188 37.7965 20.0987 37.0239 19.4939 36.3749C19.414 36.2893 19.3362 36.2058 19.2607 36.1251C18.5435 35.3593 17.9574 34.7628 17.4066 34.349C16.9239 33.9863 16.6775 33.9267 16.6067 33.9172C16.6067 33.9172 16.6016 33.9191 16.5971 33.9207C16.5193 33.9484 16.0515 34.1148 15.2074 35.0762C14.3322 36.0729 13.4368 37.4874 12.6093 39.0261C11.7938 40.5424 11.1004 42.073 10.6081 43.234C10.5447 43.3836 10.4848 43.5266 10.4285 43.6622C12.6697 45.9158 15.3082 47.7346 18.2129 49.0223C21.5916 50.5201 25.2509 51.2641 28.9408 51.2035L28.9822 51.2031C33.7994 51.2031 38.3591 50.5732 42.1137 49.1888C45.5679 47.9152 48.2028 46.059 49.8407 43.5947C49.2857 37.2794 47.2923 29.687 43.8115 23.656C40.1686 17.344 35.2252 13.2365 28.9822 13.2365ZM24.5323 34.9441C24.5323 34.9441 24.5434 34.9356 24.5647 34.9245C24.5428 34.9396 24.5323 34.9441 24.5323 34.9441Z" fill="white"></path>
       </svg>