<svg xmlns="http://www.w3.org/2000/svg" width="158" height="44" viewBox="0 0 158 44" fill="none">
                                    <path d="M21.0989 21.4154C19.3774 22.0337 16.9823 26.3794 4.30969 40.9414C4.04693 41.2433 3.65884 41.4247 3.25857 41.4247H1.98343C1.50517 41.4247 1.11746 41.8124 1.11746 42.2907C1.11746 42.7689 1.50517 43.1566 1.98343 43.1566H126.509C127.274 43.1566 127.895 42.5363 127.895 41.7711V35.5362C127.895 34.771 127.274 34.1506 126.509 34.1506H125.414C124.671 34.1506 124.06 33.5642 124.03 32.8216L123.431 18.1473C123.407 17.5652 123.022 17.0601 122.467 16.8835L116.41 14.9562C116.006 14.8279 115.684 14.5222 115.534 14.1262L111.655 3.87351C111.305 2.95067 110.131 2.6782 109.411 3.35304L99.8373 12.3283L90.5471 21.9504C90.286 22.2208 89.9263 22.3735 89.5504 22.3735H75.9877C75.7281 22.3735 75.4736 22.3005 75.2534 22.1629L67.3676 17.2343C67.3074 17.1966 67.2443 17.1637 67.179 17.1357L65.7146 16.5081C65.1939 16.2849 64.5897 16.4013 64.1891 16.8019L60.3494 20.6416L56.7812 23.8854C56.622 24.0301 56.4314 24.1358 56.2243 24.194L45.9499 27.0837C45.6305 27.1735 45.2895 27.1457 44.9888 27.0054L40.8533 25.0755C40.4771 24.9 40.0421 24.9024 39.6678 25.082L32.3622 28.5887C31.8939 28.8135 31.3391 28.7574 30.9253 28.4434L21.9255 21.6161C21.6846 21.4333 21.3835 21.3132 21.0989 21.4154Z" fill="url(#paint0_linear_16_2377)"></path>
                                    <path d="M128.934 34.1506H124.49C123.702 34.1506 123.073 33.4945 123.105 32.7074L123.693 18.5952C123.72 17.9645 123.316 17.3958 122.712 17.212L116.468 15.3115C116.032 15.1787 115.689 14.8396 115.551 14.4048L111.966 3.09854C111.65 2.10155 110.385 1.8009 109.654 2.54891L96.3735 16.1385L90.5484 22.2872C90.2868 22.5634 89.923 22.7199 89.5426 22.7199H76.0207C75.7404 22.7199 75.4667 22.6349 75.2357 22.4761L70.0482 18.9096L66.0873 16.6463C65.5592 16.3445 64.896 16.4224 64.4522 16.8384L59.6566 21.3343L56.1129 24.5559C55.9381 24.7148 55.7257 24.8264 55.4957 24.88L45.9214 27.114C45.6191 27.1845 45.3019 27.1515 45.0206 27.0203L40.9164 25.105C40.5047 24.9128 40.0249 24.9348 39.6324 25.1637L32.767 29.1685C32.2722 29.4572 31.6507 29.4115 31.2034 29.0536L21.9337 21.6379C21.6881 21.4414 21.3772 21.3152 21.0778 21.4119C19.2666 21.9966 16.3429 26.1127 4.31156 41.2394C4.0488 41.5698 3.64261 41.7711 3.2205 41.7711H0.0783081" stroke="#7AD1B3" stroke-width="2.07831"></path>
                                    <defs>
                                        <linearGradient id="paint0_linear_16_2377" x1="63.8132" y1="2.97592" x2="63.8132" y2="43.1566" gradientUnits="userSpaceOnUse">
                                            <stop stop-color="#7AD09A"></stop>
                                            <stop offset="1" stop-color="#83C49B" stop-opacity="0"></stop>
                                        </linearGradient>
                                    </defs>
                                </svg>