<svg width="27" height="28" viewBox="0 0 27 28" fill="none" xmlns="http://www.w3.org/2000/svg">
        <path d="M19.5 27.8572C23.6421 27.8572 27 24.8546 27 21.1507C27 17.4469 23.6421 14.4443 19.5 14.4443C15.3579 14.4443 12 17.4469 12 21.1507C12 24.8546 15.3579 27.8572 19.5 27.8572Z" fill="#FFCA42"></path>
        <path d="M4 10.3175C6.20911 10.3175 8 8.46976 8 6.1905C8 3.91121 6.20911 2.06348 4 2.06348C1.79086 2.06348 0 3.91121 0 6.1905C0 8.46976 1.79086 10.3175 4 10.3175Z" fill="#FFCA42"></path>
        <path d="M13.5 0C6.04801 0 0 6.24006 0 13.9287C0 21.6174 6.04801 27.8574 13.5 27.8574C20.952 27.8574 27 21.6174 27 13.9287C27 6.24006 20.952 0 13.5 0ZM13.5 26.0003C7.04701 26.0003 1.8 20.5866 1.8 13.9287C1.8 7.27079 7.04701 1.85716 13.5 1.85716C19.953 1.85716 25.2 7.27079 25.2 13.9287C25.2 20.5866 19.953 26.0003 13.5 26.0003Z" fill="black"></path>
        <path d="M18 11.2554V10.3644C18 8.96542 17.226 6.42589 14.4 5.98927V4.12695H12.6V5.99818C11.016 6.30114 9 7.4417 9 10.3644C9 12.5029 10.818 13.5811 12.6 14.4722V20.0226C11.799 19.7909 10.8 19.1672 10.8 17.492V16.6009H9V17.492C9 20.4147 11.016 21.5552 12.6 21.8582V23.7303H14.4V21.8591C15.984 21.5552 18 20.4156 18 17.4929C18 15.3543 16.182 14.2761 14.4 13.3851V7.80704C16.065 8.26148 16.191 9.96341 16.2 10.3644V11.2554H18ZM12.6 12.4584C11.457 11.8168 10.8 11.2287 10.8 10.3644C10.8 8.68919 11.799 8.06545 12.6 7.83377V12.4584ZM16.2 17.4929C16.2 19.1681 15.201 19.7918 14.4 20.0235V15.3989C15.543 16.0404 16.2 16.6285 16.2 17.4929Z" fill="black"></path>
    </svg>