<svg width="18" height="18" viewBox="0 0 18 18" fill="none" xmlns="http://www.w3.org/2000/svg">
                                    <path d="M17 9.05246C17 13.4997 13.4183 17.1049 9 17.1049C4.58172 17.1049 1 13.4997 1 9.05246C1 4.60521 4.58172 1 9 1C13.4183 1 17 4.60521 17 9.05246Z" stroke="#50606B" stroke-width="1.5"></path>
                                    <path d="M10.4496 7.54403C10.4496 7.95824 10.7854 8.29403 11.1996 8.29403C11.6138 8.29403 11.9496 7.95824 11.9496 7.54403H10.4496ZM7.34961 10.5596C7.34961 10.1453 7.01382 9.80956 6.59961 9.80956C6.1854 9.80956 5.84961 10.1453 5.84961 10.5596H7.34961ZM9.74961 5.02539C9.74961 4.61118 9.41382 4.27539 8.99961 4.27539C8.5854 4.27539 8.24961 4.61118 8.24961 5.02539L9.74961 5.02539ZM8.24961 13.0778C8.24961 13.4921 8.5854 13.8278 8.99961 13.8278C9.41382 13.8278 9.74961 13.4921 9.74961 13.0778H8.24961ZM8.99961 8.18581C8.24799 8.18581 7.88159 8.06399 7.71872 7.95424C7.61927 7.88723 7.54961 7.80071 7.54961 7.54403H6.04961C6.04961 8.18412 6.27994 8.79349 6.88049 9.19818C7.41763 9.56013 8.15123 9.68581 8.99961 9.68581V8.18581ZM7.54961 7.54403C7.54961 7.38986 7.63265 7.18877 7.88935 6.99931C8.14582 6.81002 8.5359 6.67028 8.99961 6.67028V5.17028C8.24829 5.17028 7.53837 5.39404 6.9986 5.79243C6.45905 6.19065 6.04961 6.80143 6.04961 7.54403H7.54961ZM8.99961 6.67028C9.46332 6.67028 9.8534 6.81002 10.1099 6.99931C10.3666 7.18877 10.4496 7.38986 10.4496 7.54403H11.9496C11.9496 6.80143 11.5402 6.19065 11.0006 5.79243C10.4608 5.39404 9.75093 5.17028 8.99961 5.17028V6.67028ZM10.6496 10.5596C10.6496 10.8574 10.5356 11.0282 10.3104 11.1635C10.0397 11.3261 9.59414 11.4333 8.99961 11.4333V12.9333C9.73057 12.9333 10.485 12.8085 11.0829 12.4492C11.7264 12.0626 12.1496 11.4215 12.1496 10.5596H10.6496ZM8.99961 11.4333C8.46653 11.4333 8.01735 11.2858 7.72282 11.0865C7.42402 10.8844 7.34961 10.6843 7.34961 10.5596H5.84961C5.84961 11.3316 6.31246 11.9434 6.88228 12.3289C7.45638 12.7173 8.20721 12.9333 8.99961 12.9333V11.4333ZM8.99961 9.68581C9.75728 9.68581 10.1762 9.80152 10.3898 9.9409C10.536 10.0363 10.6496 10.1791 10.6496 10.5596H12.1496C12.1496 9.78022 11.8632 9.11115 11.2094 8.68461C10.623 8.30207 9.84194 8.18581 8.99961 8.18581V9.68581ZM9.74961 5.92028L9.74961 5.02539L8.24961 5.02539L8.24961 5.92028L9.74961 5.92028ZM8.24961 12.1833V13.0778H9.74961V12.1833H8.24961Z" fill="#50606B"></path>
                                </svg>