<svg xmlns="http://www.w3.org/2000/svg" width="72" height="72" viewBox="0 0 72 72" fill="none">
         <rect width="72" height="72" rx="10" fill="#241A33"></rect>
         <path d="M40.5 24.6778C40.1871 24.2129 39.7872 23.8129 39.3222 23.5001C39.7872 23.1872 40.1871 22.7873 40.5 22.3223C40.8129 22.7873 41.2128 23.1872 41.6777 23.5001C41.2128 23.8129 40.8128 24.2129 40.5 24.6778Z" fill="white"></path>
         <path fill-rule="evenodd" clip-rule="evenodd" d="M43.4765 22.8552C42.3056 22.6098 41.3904 21.6946 41.1449 20.5237C41.1138 20.3756 41.0328 20.2428 40.9154 20.1474C40.798 20.0521 40.6513 20 40.5 20C40.3488 20 40.2021 20.052 40.0847 20.1474C39.9673 20.2427 39.8862 20.3756 39.8552 20.5236C39.6097 21.6945 38.6944 22.6097 37.5235 22.8552C37.3755 22.8862 37.2427 22.9673 37.1474 23.0847C37.052 23.2021 37 23.3487 37 23.5C37 23.6512 37.052 23.7978 37.1474 23.9153C37.2427 24.0327 37.3755 24.1137 37.5235 24.1448C38.6944 24.3902 39.6096 25.3054 39.8551 26.4763C39.8861 26.6244 39.9672 26.7572 40.0846 26.8526C40.202 26.948 40.3487 27 40.4999 27C40.6512 27 40.7979 26.948 40.9153 26.8526C41.0327 26.7572 41.1137 26.6244 41.1448 26.4763C41.3903 25.3054 42.3055 24.3903 43.4765 24.1448C43.6245 24.1138 43.7573 24.0327 43.8526 23.9153C43.948 23.7979 44 23.6512 44 23.5C44 23.3488 43.948 23.2021 43.8526 23.0847C43.7573 22.9673 43.6245 22.8863 43.4765 22.8552ZM39.3222 23.5001C39.7872 23.8129 40.1871 24.2129 40.5 24.6778C40.8128 24.2129 41.2128 23.8129 41.6777 23.5001C41.2128 23.1872 40.8129 22.7873 40.5 22.3223C40.1871 22.7873 39.7872 23.1872 39.3222 23.5001Z" fill="white"></path>
         <path d="M18.5 30.3413C18.2765 30.0092 17.9908 29.7235 17.6587 29.5C17.9908 29.2766 18.2765 28.9909 18.5 28.6588C18.7235 28.9909 19.0091 29.2766 19.3412 29.5001C19.0091 29.7235 18.7235 30.0092 18.5 30.3413Z" fill="white"></path>
         <path fill-rule="evenodd" clip-rule="evenodd" d="M20.626 29.0394C19.7897 28.8641 19.136 28.2104 18.9606 27.3741C18.9385 27.2683 18.8806 27.1734 18.7967 27.1053C18.7128 27.0372 18.6081 27 18.5 27C18.392 27 18.2872 27.0372 18.2033 27.1053C18.1195 27.1734 18.0616 27.2683 18.0394 27.374C17.8641 28.2104 17.2103 28.8641 16.3739 29.0394C16.2682 29.0616 16.1733 29.1195 16.1053 29.2033C16.0372 29.2872 16 29.392 16 29.5C16 29.608 16.0372 29.7127 16.1053 29.7966C16.1733 29.8805 16.2682 29.9384 16.3739 29.9606C17.2103 30.1359 17.864 30.7896 18.0394 31.626C18.0615 31.7317 18.1194 31.8266 18.2033 31.8947C18.2872 31.9628 18.3919 32 18.5 32C18.608 32 18.7128 31.9628 18.7966 31.8947C18.8805 31.8266 18.9384 31.7317 18.9606 31.626C19.1359 30.7896 19.7897 30.1359 20.626 29.9606C20.7318 29.9384 20.8267 29.8805 20.8947 29.7966C20.9628 29.7128 21 29.608 21 29.5C21 29.392 20.9628 29.2872 20.8947 29.2034C20.8267 29.1195 20.7318 29.0616 20.626 29.0394ZM17.6587 29.5C17.9908 29.7235 18.2765 30.0092 18.5 30.3413C18.7235 30.0092 19.0091 29.7235 19.3412 29.5001C19.0091 29.2766 18.7235 28.9909 18.5 28.6588C18.2765 28.9909 17.9908 29.2766 17.6587 29.5Z" fill="white"></path>
         <path d="M15.897 47.0583C16.5887 47.5156 17.3997 47.7594 18.229 47.7593C20.5641 47.7592 22.4571 45.8662 22.457 43.5309C22.4569 42.7019 22.2132 41.8913 21.7561 41.1997L27.7416 35.2134C28.4276 35.6725 29.2341 35.9184 30.0595 35.9203C30.3084 35.9204 30.5569 35.8987 30.802 35.8552C31.6065 35.7142 32.3524 35.3415 32.9482 34.7829L37.9654 38.6399C37.128 40.8198 38.2163 43.2658 40.3961 44.1032C42.576 44.9406 45.022 43.8524 45.8594 41.6725C46.1015 41.0425 46.1891 40.3636 46.1152 39.6927C46.0412 39.0219 45.8077 38.3784 45.4342 37.8163L51.4179 31.8325C53.3711 33.1253 56.0024 32.5899 57.2951 30.6368C58.5878 28.6836 58.0524 26.0523 56.0993 24.7596C54.1462 23.4669 51.5149 24.0023 50.2222 25.9554C49.7627 26.6496 49.5177 27.4636 49.5177 28.2961C49.5177 29.1285 49.7627 29.9426 50.2222 30.6368L44.2384 36.6205C42.5625 35.5127 40.3384 35.7371 38.9176 37.1575C38.9016 37.1736 38.8923 37.1922 38.877 37.2074L33.9326 33.4071C34.8823 31.2737 33.9228 28.7744 31.7895 27.8247C29.6561 26.8749 27.1568 27.8344 26.2071 29.9677C25.918 30.617 25.7973 31.3287 25.8561 32.037C25.9149 32.7453 26.1512 33.4273 26.5433 34.0201L20.5604 40.0038C18.6124 38.716 15.9893 39.2513 14.7015 41.1994C13.4138 43.1474 13.949 45.7705 15.897 47.0583ZM53.746 25.7726C55.1471 25.7726 56.2829 26.9084 56.2829 28.3095C56.2829 29.7107 55.1471 30.8465 53.746 30.8465C52.3449 30.8465 51.2091 29.7107 51.2091 28.3095C51.2091 26.9084 52.3449 25.7726 53.746 25.7726ZM40.1122 38.3553C40.3478 38.1195 40.6276 37.9324 40.9356 37.8048C41.2435 37.6772 41.5736 37.6116 41.907 37.6116C43.3081 37.6114 44.444 38.7471 44.4442 40.1482C44.4443 40.4816 44.3786 40.8117 44.251 41.1196C44.1234 41.4276 43.9364 41.7074 43.7006 41.943C42.6964 42.9002 41.1176 42.9002 40.1134 41.943C39.1223 40.9525 39.1219 39.3462 40.1122 38.3553ZM27.99 30.2371C28.1804 29.9636 28.4233 29.7302 28.7043 29.5511C28.9853 29.372 29.2991 29.2503 29.6274 29.1932C29.7746 29.168 29.9237 29.1553 30.073 29.1552C30.5922 29.1557 31.0985 29.3161 31.5233 29.6144C32.671 30.4182 32.9498 32 32.146 33.1477C31.3423 34.2953 29.7604 34.5741 28.6127 33.7704C27.4651 32.9666 27.1862 31.3847 27.99 30.2371ZM16.4342 41.7378L16.4354 41.7367C17.4265 40.7461 19.0329 40.7464 20.0234 41.7375C21.014 42.7286 21.0137 44.335 20.0226 45.3256C19.0184 46.2827 17.4396 46.2827 16.4354 45.3256C15.4443 44.3351 15.4438 42.7288 16.4342 41.7378Z" fill="white"></path>
         <path d="M53.746 25.7726C55.1471 25.7726 56.2829 26.9084 56.2829 28.3095C56.2829 29.7107 55.1471 30.8465 53.746 30.8465C52.3449 30.8465 51.2091 29.7107 51.2091 28.3095C51.2091 26.9084 52.3449 25.7726 53.746 25.7726Z" fill="white"></path>
         <path d="M40.1122 38.3553C40.3478 38.1195 40.6276 37.9324 40.9356 37.8048C41.2435 37.6772 41.5736 37.6116 41.907 37.6116C43.3081 37.6114 44.444 38.7471 44.4442 40.1482C44.4443 40.4816 44.3786 40.8117 44.251 41.1196C44.1234 41.4276 43.9364 41.7074 43.7006 41.943C42.6964 42.9002 41.1176 42.9002 40.1134 41.943C39.1223 40.9525 39.1219 39.3462 40.1122 38.3553Z" fill="white"></path>
         <path d="M27.99 30.2371C28.1804 29.9636 28.4233 29.7302 28.7043 29.5511C28.9853 29.372 29.2991 29.2503 29.6274 29.1932C29.7746 29.168 29.9237 29.1553 30.073 29.1552C30.5922 29.1557 31.0985 29.3161 31.5233 29.6144C32.671 30.4182 32.9498 32 32.146 33.1477C31.3423 34.2953 29.7604 34.5741 28.6127 33.7704C27.4651 32.9666 27.1862 31.3847 27.99 30.2371Z" fill="white"></path>
         <path d="M16.4342 41.7378L16.4354 41.7367C17.4265 40.7461 19.0329 40.7464 20.0234 41.7375C21.014 42.7286 21.0137 44.335 20.0226 45.3256C19.0184 46.2827 17.4396 46.2827 16.4354 45.3256C15.4443 44.3351 15.4438 42.7288 16.4342 41.7378Z" fill="white"></path>
        </svg>