<svg xmlns="http://www.w3.org/2000/svg" width="204" height="52" viewBox="0 0 204 52" fill="none">
        <path d="M65.3797 33.67C62.4257 33.67 60.694 31.3527 60.694 28.7286C60.694 25.6956 62.6634 23.6849 65.3797 23.6849C66.8058 23.6849 67.7566 24.2642 68.6394 24.8095L70.0654 22.2536C69.0468 21.6061 67.3491 20.8223 65.5495 20.8223C60.8638 20.8223 57.5024 24.162 57.5024 28.7286C57.5024 33.2611 60.9317 36.635 65.5495 36.635C67.5189 36.635 68.945 35.8171 70.0654 35.1355L68.6394 32.5796C67.7566 33.1929 66.4323 33.67 65.3797 33.67ZM75.3962 13.836H78.4182V36.226H75.3962V13.836ZM95.8367 21.2994L95.4971 22.5944C94.6823 21.7084 92.9506 20.8223 91.1171 20.8223C87.3821 20.8223 83.9528 23.7871 83.9528 28.6263C83.9528 33.636 87.3821 36.6691 91.1171 36.6691C92.9506 36.6691 94.6144 35.783 95.4971 34.8969L95.8367 36.2601H98.3833V21.4016H95.8367V21.2994ZM95.565 28.8308C95.565 32.2388 93.4939 33.7723 91.5245 33.7723C89.5213 33.7723 87.2123 32.4092 87.2123 28.6604C87.2123 26.2749 88.4687 23.719 91.2868 23.719C93.426 23.719 95.565 25.457 95.565 28.6604V28.8308ZM109.181 30.0236C111.252 30.5689 112.135 30.9778 112.135 32.0343C112.135 32.8522 111.422 33.7041 109.758 33.7041C108.23 33.7041 106.974 33.159 105.785 32.5114L104.427 35.0673C105.48 35.7148 107.823 36.6009 109.758 36.6009C113.086 36.6009 115.021 34.3516 115.021 32.0684C115.021 28.1492 111.184 27.5359 110.165 27.1951C108.026 26.6157 107.483 26.1727 107.483 25.2866C107.483 24.3324 108.298 23.6849 109.86 23.6849C111.218 23.6849 112.237 24.0938 113.188 24.571L114.614 22.0151C113.255 21.4357 111.659 20.8223 109.86 20.8223C106.6 20.8223 104.631 23.1396 104.631 25.2866C104.631 28.7286 107.517 29.6147 109.181 30.0236ZM125.377 30.0236C127.448 30.5689 128.331 30.9778 128.331 32.0343C128.331 32.8522 127.618 33.7041 125.954 33.7041C124.426 33.7041 123.17 33.159 121.981 32.5114L120.623 35.0673C121.676 35.7148 124.019 36.6009 125.954 36.6009C129.282 36.6009 131.217 34.3516 131.217 32.0684C131.217 28.1492 127.38 27.5359 126.362 27.1951C124.222 26.6157 123.679 26.1727 123.679 25.2866C123.679 24.3324 124.494 23.6849 126.056 23.6849C127.414 23.6849 128.433 24.0938 129.384 24.571L130.81 22.0151C129.451 21.4357 127.856 20.8223 126.056 20.8223C122.797 20.8223 120.827 23.1396 120.827 25.2866C120.793 28.7286 123.713 29.6147 125.377 30.0236ZM144.323 20.8223C142.49 20.8223 140.826 21.7084 139.944 22.5944L139.604 21.2312H137.058V42.3944H139.909V35.0332L140.011 34.9651C140.826 35.8512 142.49 36.5668 144.086 36.5668C147.922 36.5668 151.487 34.079 151.487 28.5241C151.556 23.5486 148.127 20.8223 144.323 20.8223ZM143.984 33.7723C142.015 33.7723 139.944 32.2388 139.944 28.8308V28.6604C139.944 25.3889 142.082 23.719 144.222 23.719C147.073 23.719 148.297 26.2749 148.297 28.6604C148.297 32.4092 145.987 33.7723 143.984 33.7723ZM168.397 21.2994L168.058 22.6626C167.243 21.7765 165.511 20.8904 163.677 20.8904C159.942 20.8904 156.513 23.8553 156.513 28.6945C156.513 33.7041 159.942 36.7372 163.677 36.7372C165.511 36.7372 167.174 35.8512 168.058 34.9651L168.397 36.3283H170.944V21.4698H168.397V21.2994ZM168.092 28.8308C168.092 32.2388 166.021 33.7723 164.051 33.7723C162.047 33.7723 159.739 32.4092 159.739 28.6604C159.739 26.2749 160.995 23.719 163.814 23.719C165.952 23.719 168.092 25.457 168.092 28.6604V28.8308ZM181.741 30.0236C183.812 30.5689 184.695 30.9778 184.695 32.0343C184.695 32.8522 183.982 33.7041 182.318 33.7041C180.79 33.7041 179.534 33.159 178.346 32.5114L176.987 35.0673C178.04 35.7148 180.383 36.6009 182.318 36.6009C185.646 36.6009 187.581 34.3516 187.581 32.0684C187.581 28.1492 183.745 27.5359 182.726 27.1951C180.586 26.6157 180.043 26.1727 180.043 25.2866C180.043 24.3324 180.859 23.6849 182.42 23.6849C183.778 23.6849 184.797 24.0938 185.748 24.571L187.174 22.0151C185.816 21.4357 184.22 20.8223 182.42 20.8223C179.161 20.8223 177.191 23.1396 177.191 25.2866C177.157 28.7286 180.077 29.6147 181.741 30.0236ZM197.903 30.0236C199.975 30.5689 200.857 30.9778 200.857 32.0343C200.857 32.8522 200.144 33.7041 198.48 33.7041C196.952 33.7041 195.696 33.159 194.508 32.5114L193.15 35.0673C194.202 35.7148 196.545 36.6009 198.48 36.6009C201.808 36.6009 203.743 34.3516 203.743 32.0684C203.743 28.1492 199.907 27.5359 198.888 27.1951C196.749 26.6157 196.206 26.1727 196.206 25.2866C196.206 24.3324 197.021 23.6849 198.583 23.6849C199.941 23.6849 200.959 24.0938 201.91 24.571L203.336 22.0151C201.978 21.4357 200.382 20.8223 198.583 20.8223C195.323 20.8223 193.353 23.1396 193.353 25.2866C193.353 28.7286 196.273 29.6147 197.903 30.0236Z" fill="white"></path>
        <path d="M31.5916 9.09961H26.1249C25.1743 9.09961 24.2235 9.81517 24.1217 10.7694L23.3067 14.6886C23.2049 15.4042 22.5937 15.8813 21.8806 15.8813H15.8369C7.65384 15.9835 0.0820312 22.1859 0.0820312 30.9783C0.0820312 38.8166 6.60126 45.9732 15.9727 45.9732H22.1523C23.103 45.9732 24.0538 45.2576 24.1556 44.3033L24.9705 40.3842C25.0724 39.6686 25.6836 39.1915 26.3965 39.1915H31.7274C40.8612 39.1915 47.618 32.1711 47.618 24.1966C47.4822 15.4042 40.0123 9.09961 31.5916 9.09961ZM31.4557 33.3639H25.0385C24.0877 33.3639 23.2728 34.0796 23.0351 35.0338L22.2202 38.8507C22.1183 39.5663 21.5071 40.0434 20.7942 40.0434H16.0405C11.1851 40.0434 5.95612 36.6014 5.95612 30.8761C5.95612 25.6279 10.5739 21.7088 16.0405 21.7088H23.3747C24.3254 21.7088 25.1403 20.9931 25.378 20.039L26.1928 16.2221C26.2947 15.5064 26.9059 15.0293 27.6189 15.0293H31.4218C36.5149 15.0293 41.5062 18.6077 41.5062 24.1966C41.4383 29.3085 37.0582 33.3639 31.4557 33.3639Z" fill="white"></path>
       </svg>