<svg xmlns="http://www.w3.org/2000/svg" width="35" height="33" viewBox="0 0 35 33" fill="none">
        <g clip-path="url(#clip0_1_393)">
         <path d="M17.5 0.25C17.931 0.25 18.3443 0.421205 18.649 0.725951C18.9538 1.0307 19.125 1.44402 19.125 1.875V19.0773L22.8511 15.3511C23.1576 15.0551 23.5681 14.8913 23.9942 14.895C24.4202 14.8987 24.8278 15.0696 25.1291 15.3709C25.4304 15.6722 25.6013 16.0798 25.605 16.5058C25.6087 16.9319 25.4449 17.3424 25.1489 17.6489L18.6489 24.1489C18.3441 24.4535 17.9309 24.6247 17.5 24.6247C17.0691 24.6247 16.6559 24.4535 16.3511 24.1489L9.85113 17.6489C9.69592 17.499 9.57213 17.3197 9.48696 17.1214C9.4018 16.9231 9.35697 16.7099 9.35509 16.4942C9.35322 16.2784 9.39433 16.0644 9.47604 15.8647C9.55775 15.665 9.67841 15.4836 9.83098 15.331C9.98356 15.1784 10.165 15.0577 10.3647 14.976C10.5644 14.8943 10.7784 14.8532 10.9942 14.8551C11.2099 14.857 11.4232 14.9018 11.6214 14.987C11.8197 15.0721 11.999 15.1959 12.1489 15.3511L15.875 19.0773V1.875C15.875 1.44402 16.0462 1.0307 16.351 0.725951C16.6557 0.421205 17.069 0.25 17.5 0.25ZM2.5 24.625C2.93098 24.625 3.3443 24.7962 3.64905 25.101C3.95379 25.4057 4.125 25.819 4.125 26.25V29.5H30.875V26.25C30.875 25.819 31.0462 25.4057 31.351 25.101C31.6557 24.7962 32.069 24.625 32.5 24.625C32.931 24.625 33.3443 24.7962 33.649 25.101C33.9538 25.4057 34.125 25.819 34.125 26.25V29.5C34.125 30.362 33.7826 31.1886 33.1731 31.7981C32.5636 32.4076 31.737 32.75 30.875 32.75H4.125C3.26305 32.75 2.4364 32.4076 1.8269 31.7981C1.21741 31.1886 0.875 30.362 0.875 29.5V26.25C0.875 25.819 1.04621 25.4057 1.35095 25.101C1.6557 24.7962 2.06902 24.625 2.5 24.625Z" fill="white"></path>
        </g>
        <defs>
         <clipPath id="clip0_1_393">
          <rect width="35" height="33" fill="white"></rect>
         </clipPath>
        </defs>
       </svg>