<svg width="113" height="163" viewBox="0 0 113 163" fill="none" xmlns="http://www.w3.org/2000/svg">
                                    <path fill-rule="evenodd" clip-rule="evenodd" d="M26.3489 112.108C15.5519 94.6049 3.49949 78.209 4.66365 63.4288C5.80498 48.6785 20.2086 35.5439 33.9958 30.5772C47.8059 25.6405 60.9997 28.8718 74.3989 35.7533C87.7753 42.6049 101.357 53.1066 104.85 68.0663C108.319 82.9962 101.7 102.414 91.9069 119.618C82.1143 136.791 69.1488 151.781 57.9181 149.956C46.6646 148.161 37.1459 129.581 26.3489 112.108Z" fill="#F8F8F8"></path>
                                    <ellipse cx="71.2476" cy="59.3728" rx="1.05813" ry="1.38692" fill="#FF9F67"></ellipse>
                                    <ellipse cx="8.46472" cy="76.0156" rx="1.76355" ry="2.31153" fill="#39BEE8"></ellipse>
                                    <ellipse cx="67.0145" cy="137.04" rx="1.76355" ry="2.31153" fill="#B3DB64"></ellipse>
                                    <path fill-rule="evenodd" clip-rule="evenodd" d="M66.0698 32.7143C67.2672 32.4896 68.4701 32.4019 69.6784 32.4514C69.7485 32.4542 69.8155 32.4746 69.8795 32.5124C69.9434 32.5502 69.9994 32.6026 70.0475 32.6697C70.0955 32.7367 70.1319 32.8132 70.1567 32.8992C70.1816 32.9852 70.1929 33.0742 70.1907 33.1661C70.1906 33.1676 70.1906 33.1691 70.1905 33.1706C70.1905 33.1721 70.1904 33.1736 70.1904 33.1751C70.184 33.3647 70.1277 33.5239 70.0216 33.653C69.9155 33.782 69.79 33.8435 69.6454 33.8376C68.4984 33.7907 67.3565 33.8739 66.2198 34.0872C66.0765 34.1141 65.9466 34.0712 65.8302 33.9583C65.7138 33.8455 65.6444 33.6954 65.6221 33.5079C65.6219 33.5065 65.6217 33.505 65.6216 33.5035C65.6214 33.502 65.6212 33.5005 65.6211 33.499C65.6111 33.408 65.6148 33.318 65.6322 33.2289C65.6496 33.1398 65.6794 33.0584 65.7214 32.9849C65.7635 32.9113 65.8147 32.851 65.8751 32.8042C65.9355 32.7573 66.0004 32.7273 66.0698 32.7143ZM72.6384 33.5453C72.6382 33.5468 72.638 33.5483 72.6378 33.5497C72.6376 33.5512 72.6373 33.5526 72.6371 33.5541C72.6241 33.6429 72.6242 33.7316 72.6376 33.8203C72.651 33.909 72.6767 33.9911 72.7146 34.0666C72.7532 34.1435 72.8015 34.2077 72.8595 34.2593C72.9176 34.311 72.9809 34.3461 73.0497 34.3646C73.5494 34.4998 74.0458 34.66 74.5387 34.8453C75.1602 35.0789 75.7701 35.35 76.3682 35.6584C76.4335 35.6921 76.5012 35.7081 76.5714 35.7065C76.6415 35.7049 76.7088 35.6857 76.7731 35.649C76.8364 35.6129 76.8921 35.5625 76.9403 35.4979C76.9885 35.4332 77.0257 35.359 77.0517 35.2753C77.0522 35.2739 77.0526 35.2726 77.053 35.2712C77.0534 35.2698 77.0539 35.2684 77.0543 35.2671C77.1078 35.0889 77.1054 34.912 77.0471 34.7364C76.9888 34.5608 76.8916 34.438 76.7557 34.3678C76.1261 34.0432 75.4843 33.7579 74.8304 33.5121C74.3117 33.3172 73.7894 33.1486 73.2635 33.0063C73.1204 32.9676 72.9879 33.0009 72.8658 33.1062C72.7437 33.2114 72.668 33.3578 72.6384 33.5453ZM63.2166 34.2419C63.2371 34.3282 63.2445 34.4164 63.2387 34.5065C63.2329 34.5966 63.2144 34.6819 63.1831 34.7625C63.1513 34.8444 63.1087 34.9153 63.0554 34.9751C63.0021 35.0348 62.9421 35.079 62.8753 35.1074C61.826 35.5553 60.8113 36.1133 59.8314 36.7814C59.7912 36.8089 59.751 36.8365 59.711 36.8642C59.649 36.9072 59.583 36.933 59.5132 36.9416C59.4433 36.9502 59.3749 36.941 59.3078 36.9139C59.2408 36.8868 59.1802 36.8439 59.1262 36.7853C59.0722 36.7266 59.0288 36.6566 58.996 36.5753C58.9632 36.4941 58.9435 36.4076 58.9369 36.3161C58.9304 36.2245 58.9374 36.1348 58.9581 36.0469C58.9788 35.959 59.0115 35.8797 59.0562 35.8089C59.101 35.738 59.1543 35.6811 59.2164 35.6382C60.2871 34.8961 61.3976 34.2796 62.5477 33.7887C62.6866 33.7294 62.8212 33.7431 62.9514 33.83C63.0816 33.9168 63.1694 34.0513 63.2146 34.2333C63.2149 34.2348 63.2153 34.2362 63.2156 34.2376C63.216 34.239 63.2163 34.2404 63.2166 34.2419ZM79.2613 36.7033C79.2607 36.7046 79.2602 36.7059 79.2596 36.7071C79.259 36.7084 79.2584 36.7097 79.2578 36.711C79.1841 36.8743 79.1648 37.048 79.1998 37.2321C79.2348 37.4162 79.3142 37.5576 79.4378 37.6563C80.4238 38.444 81.3507 39.3385 82.2184 40.3398C82.271 40.4005 82.3306 40.4458 82.397 40.4755C82.4634 40.5052 82.5316 40.5171 82.6016 40.5113C82.6704 40.5056 82.7359 40.483 82.798 40.4437C82.8601 40.4044 82.9143 40.3512 82.9605 40.2841C82.9613 40.283 82.962 40.2819 82.9628 40.2808C82.9636 40.2797 82.9643 40.2786 82.9651 40.2775C83.0616 40.1337 83.1052 39.9663 83.096 39.7752C83.0867 39.5841 83.0272 39.4253 82.9176 39.2987C82.0035 38.2441 81.0272 37.3018 79.9885 36.472C79.9286 36.4242 79.8639 36.3932 79.7946 36.379C79.7253 36.3648 79.6565 36.3686 79.5884 36.3903C79.5202 36.412 79.4578 36.4499 79.4011 36.5041C79.3444 36.5584 79.2979 36.6248 79.2613 36.7033ZM84.667 42.6118C84.6661 42.6128 84.6652 42.6137 84.6644 42.6147C84.6635 42.6156 84.6626 42.6166 84.6617 42.6175C84.5501 42.7383 84.4868 42.893 84.4721 43.0818C84.4573 43.2705 84.4953 43.4389 84.586 43.5868C85.305 44.7597 85.9428 46.0052 86.4994 47.3232C86.5334 47.4037 86.5778 47.4725 86.6327 47.5298C86.6876 47.5871 86.7488 47.6285 86.8162 47.6539C86.8825 47.6788 86.9499 47.6865 87.0185 47.6769C87.0871 47.6673 87.1518 47.6411 87.2126 47.5983C87.2136 47.5976 87.2146 47.5969 87.2156 47.5962C87.2166 47.5955 87.2175 47.5948 87.2185 47.5941C87.3464 47.5014 87.4304 47.363 87.4708 47.1789C87.5111 46.9949 87.4959 46.8191 87.4252 46.6515C86.8393 45.264 86.1678 43.9529 85.4108 42.7181C85.3669 42.6464 85.3141 42.5884 85.2526 42.5443C85.1911 42.5001 85.1254 42.473 85.0557 42.463C84.986 42.4531 84.9174 42.461 84.8501 42.4868C84.7827 42.5126 84.7217 42.5542 84.667 42.6118ZM89.2968 56.5186L89.2926 56.5194C89.1487 56.5451 89.0187 56.5006 88.9027 56.386C88.7867 56.2714 88.7183 56.1198 88.6976 55.9314C88.6139 55.1714 88.5124 54.3918 88.3931 53.5926C88.2522 52.8637 88.0876 52.1436 87.8992 51.4325C87.8517 51.2532 87.8591 51.078 87.9214 50.9067C87.9837 50.7354 88.0829 50.6175 88.2191 50.553C88.2201 50.5524 88.2212 50.5519 88.2223 50.5514C88.2233 50.5509 88.2244 50.5504 88.2255 50.5499C88.2917 50.5198 88.3599 50.5074 88.4299 50.5127C88.5 50.5181 88.5666 50.5409 88.6297 50.581C88.6928 50.6211 88.7477 50.6755 88.7944 50.7442C88.841 50.8129 88.8758 50.8907 88.8988 50.9776C89.0988 51.7325 89.2734 52.4971 89.4225 53.2711C89.4237 53.2771 89.4247 53.2831 89.4258 53.2892C89.4268 53.2953 89.4278 53.3014 89.4287 53.3075C89.5526 54.1359 89.658 54.9445 89.7448 55.7332C89.7549 55.8242 89.7512 55.9143 89.7339 56.0034C89.7166 56.0925 89.6869 56.1739 89.6449 56.2475C89.6029 56.3212 89.5518 56.3815 89.4914 56.4285C89.4311 56.4754 89.3662 56.5055 89.2968 56.5186ZM89.1873 65.6654C89.0453 65.6311 88.9329 65.5366 88.8499 65.3818C88.767 65.2269 88.7374 65.0562 88.7611 64.8696C88.9382 63.473 89.0137 61.963 88.9875 60.3395C88.9861 60.2476 88.998 60.1588 89.0235 60.0731C89.049 59.9874 89.086 59.9114 89.1345 59.845C89.1824 59.7796 89.2379 59.7284 89.3011 59.6915C89.3642 59.6546 89.4304 59.6347 89.4995 59.6318C89.5005 59.6317 89.5014 59.6317 89.5024 59.6317C89.5034 59.6316 89.5043 59.6316 89.5053 59.6316C89.6513 59.6275 89.7771 59.6917 89.8826 59.8243C89.9881 59.9568 90.0423 60.1188 90.0454 60.3102C90.073 62.0198 89.9928 63.6154 89.8049 65.0971C89.7934 65.1878 89.769 65.2722 89.7319 65.3502C89.6948 65.4282 89.6477 65.494 89.5906 65.5475C89.5335 65.601 89.4708 65.6381 89.4025 65.6589C89.3342 65.6796 89.2654 65.6825 89.1962 65.6674C89.1947 65.6671 89.1932 65.6667 89.1917 65.6664C89.1902 65.6661 89.1888 65.6657 89.1873 65.6654ZM85.9249 72.7015C85.8252 72.8368 85.7757 72.9984 85.7764 73.1865C85.777 73.3745 85.8277 73.5356 85.9282 73.6696C85.9298 73.6717 85.9314 73.6738 85.933 73.6759C85.9346 73.678 85.9362 73.68 85.9379 73.6821C85.9883 73.746 86.0462 73.7948 86.1115 73.8285C86.1767 73.8622 86.2445 73.8783 86.3146 73.8767C86.3847 73.8751 86.452 73.8559 86.5163 73.8193C86.5807 73.7826 86.6372 73.7312 86.686 73.6651C87.5345 72.5136 88.223 71.1897 88.7513 69.6934C88.7808 69.6099 88.797 69.5223 88.7998 69.4304C88.8027 69.3385 88.792 69.2494 88.7678 69.1631C88.7436 69.0767 88.7078 68.9998 88.6602 68.9322C88.6127 68.8645 88.5571 68.8114 88.4934 68.7728C88.4916 68.7717 88.4897 68.7706 88.4878 68.7695C88.486 68.7684 88.4841 68.7673 88.4822 68.7662C88.3505 68.6911 88.2174 68.687 88.0831 68.754C87.9488 68.8209 87.8514 68.9399 87.791 69.1109C87.3127 70.4654 86.6907 71.6623 85.9249 72.7015Z" fill="#0D0938"></path>
                                    <rect width="6.52474" height="1.8184" rx="0.70542" transform="matrix(0.914351 -0.436206 -0.265362 -0.955622 104.278 85.5601)" fill="#0D0938"></rect>
                                    <rect width="7.98574" height="1.50322" rx="0.70542" transform="matrix(0.284908 -0.972835 0.876205 0.440855 98.2109 77.6519)" fill="#0D0938"></rect>
                                    <rect width="7.38674" height="1.64755" rx="0.70542" transform="matrix(0.563871 -0.850217 0.646279 0.73637 101.591 80.0029)" fill="#0D0938"></rect>
                                    <rect width="45.8523" height="80.9037" rx="3.87981" transform="matrix(-1 0 0 1 60.666 38.1064)" fill="white"></rect>
                                    <path fill-rule="evenodd" clip-rule="evenodd" d="M22.5728 123.633H59.6073C61.9449 123.633 63.8398 121.149 63.8398 118.086V48.2772C63.8398 45.2133 61.9449 42.7295 59.6073 42.7295H22.5728C20.2352 42.7295 18.3403 45.2133 18.3403 48.2772V112.538H19.3984V48.2772C19.3984 47.1282 19.7083 46.1475 20.3281 45.3351C20.948 44.5226 21.6962 44.1164 22.5728 44.1164H59.6073C60.4839 44.1164 61.2321 44.5226 61.852 45.3351C62.4718 46.1475 62.7817 47.1282 62.7817 48.2772L62.7817 118.086C62.7817 119.234 62.4718 120.215 61.852 121.028C61.2321 121.84 60.4839 122.246 59.6073 122.246H22.5728V123.633Z" fill="#0D0938"></path>
                                    <path fill-rule="evenodd" clip-rule="evenodd" d="M9.16979 117.623C9.16979 120.942 11.2227 123.633 13.755 123.633H59.2546C61.787 123.633 63.8398 120.942 63.8398 117.623H62.7817C62.7817 118.9 62.4374 119.989 61.7486 120.892C61.0599 121.795 60.2286 122.246 59.2546 122.246H13.755C12.781 122.246 11.9497 121.795 11.261 120.892C10.5723 119.989 10.2279 118.9 10.2279 117.623H9.16979Z" fill="#0D0938"></path>
                                    <path fill-rule="evenodd" clip-rule="evenodd" d="M9.19688 117.623H9.16985V109.764H19.3984V117.623H19.3714C19.1067 121 16.93 123.633 14.2841 123.633C11.6382 123.633 9.46162 121 9.19688 117.623ZM18.3401 117.207V111.151H10.2278V117.207L10.2492 117.482C10.3546 118.826 10.7911 119.954 11.5586 120.868C12.3311 121.787 13.2395 122.246 14.2839 122.246C15.3283 122.246 16.2368 121.787 17.0092 120.868C17.7768 119.954 18.2132 118.826 18.3186 117.482L18.3401 117.207Z" fill="#0D0938"></path>
                                    <rect width="35.271" height="1.38692" rx="0.529065" transform="matrix(-1 0 0 1 58.5498 79.252)" fill="#0D0938"></rect>
                                    <rect width="35.271" height="1.38692" rx="0.529065" transform="matrix(-1 0 0 1 58.5498 70.0059)" fill="#0D0938"></rect>
                                    <rect width="28.2168" height="1.38692" rx="0.529065" transform="matrix(-1 0 0 1 51.4951 60.7598)" fill="#0D0938"></rect>
                                    <rect width="21.1626" height="1.38692" rx="0.529065" transform="matrix(-1 0 0 1 44.4414 51.5137)" fill="#0D0938"></rect>
                                    <rect width="35.271" height="1.38692" rx="0.529065" transform="matrix(-1 0 0 1 58.5498 88.498)" fill="#0D0938"></rect>
                                    <rect width="35.271" height="1.38692" rx="0.529065" transform="matrix(-1 0 0 1 58.5498 97.7441)" fill="#0D0938"></rect>
                                    <rect width="35.271" height="1.38692" rx="0.529065" transform="matrix(-1 0 0 1 58.5498 106.99)" fill="#0D0938"></rect>
                                    <rect x="52.2012" y="82.4878" width="48.674" height="45.3061" rx="2.82168" fill="#D0C4F2"></rect>
                                    <path fill-rule="evenodd" clip-rule="evenodd" d="M94.5265 79.7139H51.4952C50.7161 79.7139 50.0511 80.0749 49.5002 80.797C48.9493 81.5191 48.6738 82.3907 48.6738 83.4119V121.322C48.6738 122.343 48.9493 123.215 49.5002 123.937C50.0511 124.659 50.7161 125.02 51.4952 125.02H94.5265C95.3056 125.02 95.9706 124.659 96.5215 123.937C97.0724 123.215 97.3478 122.343 97.3478 121.322V83.4119C97.3478 82.3907 97.0724 81.5191 96.5215 80.797C95.9706 80.0749 95.3056 79.7139 94.5265 79.7139ZM50.2486 81.7777C50.5929 81.3264 51.0085 81.1008 51.4954 81.1008H94.5267C95.0136 81.1008 95.4292 81.3264 95.7735 81.7777C96.1178 82.2289 96.2899 82.7737 96.2899 83.4118V121.322C96.2899 121.96 96.1178 122.505 95.7735 122.956C95.4292 123.407 95.0136 123.633 94.5267 123.633H51.4954C51.0085 123.633 50.5929 123.407 50.2486 122.956C49.9043 122.505 49.7322 121.96 49.7322 121.322L49.7322 83.4118C49.7322 82.7737 49.9043 82.2289 50.2486 81.7777Z" fill="#0D0938"></path>
                                    <rect x="62.0771" y="85.2612" width="35.271" height="1.38692" rx="0.529065" fill="#0D0938"></rect>
                                    <path fill-rule="evenodd" clip-rule="evenodd" d="M81.8879 114.497L74.2764 94.187C74.1578 93.8706 73.9844 93.6192 73.7562 93.4329C73.5279 93.2465 73.2793 93.1533 73.0104 93.1533C72.7415 93.1533 72.4929 93.2465 72.2646 93.4329C72.0364 93.6192 71.863 93.8706 71.7444 94.187L64.1329 114.497C64.0255 114.783 63.9779 115.086 63.9902 115.405C64.0024 115.723 64.0729 116.018 64.2017 116.289C64.3304 116.56 64.5013 116.773 64.7142 116.928C64.9271 117.083 65.1553 117.16 65.3989 117.16H80.6219C80.8655 117.16 81.0937 117.083 81.3066 116.928C81.5195 116.773 81.6904 116.56 81.8191 116.289C81.9479 116.018 82.0184 115.723 82.0306 115.405C82.0429 115.086 81.9953 114.783 81.8879 114.497ZM73.0105 94.5402C73.1568 94.5402 73.2622 94.6263 73.3267 94.7984L80.9383 115.108C80.9958 115.261 80.99 115.411 80.9211 115.556C80.8521 115.701 80.7524 115.773 80.622 115.773H65.3989C65.2685 115.773 65.1688 115.701 65.0999 115.556C65.0309 115.411 65.0252 115.261 65.0827 115.108L72.6942 94.7984C72.7587 94.6263 72.8641 94.5402 73.0105 94.5402Z" fill="#0D0938"></path>
                                    <path fill-rule="evenodd" clip-rule="evenodd" d="M72.0193 100.187C71.9829 99.6148 72.4371 99.1309 73.0103 99.1309C73.5835 99.1309 74.0376 99.6148 74.0013 100.187L73.3854 109.874C73.3728 110.072 73.2086 110.226 73.0103 110.226C72.812 110.226 72.6478 110.072 72.6352 109.874L72.0193 100.187Z" fill="#0D0938"></path>
                                    <ellipse cx="73.0103" cy="112.537" rx="1.05813" ry="1.38692" fill="#0D0938"></ellipse>
                                </svg>