<svg xmlns="http://www.w3.org/2000/svg" width="43" height="43" viewBox="0 0 43 43" fill="none">
        <path d="M23.3062 20.7503C18.3602 19.7656 14.4942 16.0939 13.4575 11.3962C13.3957 11.1164 13.2344 10.8653 13.0007 10.6851C12.767 10.5048 12.4751 10.4065 12.1741 10.4065C11.873 10.4065 11.5812 10.5049 11.3475 10.6851C11.1138 10.8654 10.9525 11.1165 10.8907 11.3963C9.85393 16.0939 5.988 19.7655 1.04193 20.7501C0.747342 20.8089 0.483 20.962 0.293277 21.184C0.103554 21.4059 0 21.6831 0 21.969C0 22.2549 0.103554 22.5321 0.293277 22.754C0.483 22.9759 0.747342 23.1291 1.04193 23.1879C5.98792 24.1727 9.85369 27.8443 10.8905 32.5419C10.9522 32.8218 11.1135 33.0729 11.3472 33.2532C11.5809 33.4334 11.8728 33.5318 12.1738 33.5318C12.4749 33.5318 12.7668 33.4334 13.0005 33.2532C13.2342 33.0729 13.3954 32.8218 13.4572 32.5419C14.4941 27.8444 18.3601 24.1727 23.3062 23.1882C23.6008 23.1296 23.8653 22.9764 24.0552 22.7545C24.245 22.5325 24.3486 22.2553 24.3486 21.9693C24.3486 21.6833 24.245 21.4061 24.0552 21.1841C23.8654 20.9621 23.6009 20.809 23.3062 20.7503ZM12.1739 28.5211C10.6845 25.6836 8.26305 23.3837 5.27548 21.9691C8.2631 20.5545 10.6846 18.2546 12.1741 15.4171C13.6635 18.2547 16.085 20.5546 19.0725 21.9692C16.0849 23.3838 13.6633 25.6836 12.1739 28.5211ZM40.047 6.35223C37.7166 5.88834 35.8952 4.15841 35.4066 1.94499C35.3448 1.66514 35.1836 1.414 34.9499 1.23375C34.7162 1.05349 34.4243 0.955087 34.1233 0.955078C33.8222 0.955069 33.5303 1.05345 33.2966 1.2337C33.0629 1.41394 32.9016 1.66507 32.8399 1.94491C32.3513 4.15826 30.5298 5.88818 28.1994 6.35215C27.9048 6.41088 27.6405 6.56408 27.4508 6.78602C27.261 7.00797 27.1575 7.28515 27.1575 7.57103C27.1575 7.85691 27.261 8.13409 27.4508 8.35604C27.6405 8.57798 27.9048 8.73118 28.1994 8.78991C30.5297 9.25388 32.3512 10.9839 32.8397 13.1972C32.9015 13.4771 33.0627 13.7282 33.2964 13.9085C33.5301 14.0887 33.822 14.1871 34.1231 14.1871C34.4241 14.1871 34.716 14.0887 34.9497 13.9085C35.1834 13.7282 35.3447 13.4771 35.4064 13.1972C35.895 10.9839 37.7165 9.25395 40.047 8.78999C40.3415 8.73125 40.6059 8.57806 40.7956 8.35611C40.9853 8.13417 41.0889 7.85699 41.0889 7.57111C41.0889 7.28523 40.9853 7.00805 40.7956 6.7861C40.6059 6.56416 40.3415 6.41096 40.047 6.35223ZM34.1231 9.79747C33.5005 8.91862 32.7045 8.16261 31.7792 7.57118C32.7045 6.97978 33.5005 6.2238 34.1231 5.34497C34.7458 6.22382 35.5418 6.97983 36.4671 7.57126C35.5418 8.16262 34.7458 8.91861 34.1231 9.79747ZM40.7656 32.6595C37.6157 32.0323 35.1538 29.694 34.4936 26.7024C34.4318 26.4226 34.2705 26.1714 34.0368 25.9912C33.8032 25.8109 33.5113 25.7125 33.2102 25.7125C32.9092 25.7125 32.6173 25.8109 32.3836 25.9911C32.1499 26.1714 31.9886 26.4225 31.9268 26.7024C31.2665 29.694 28.8046 32.0322 25.6547 32.6593C25.3601 32.718 25.0958 32.8712 24.906 33.0932C24.7163 33.3151 24.6128 33.5923 24.6128 33.8782C24.6128 34.1641 24.7163 34.4413 24.906 34.6632C25.0958 34.8851 25.3601 35.0383 25.6547 35.0971C28.8045 35.7242 31.2664 38.0625 31.9267 41.0541C31.9884 41.3339 32.1497 41.5851 32.3834 41.7653C32.6171 41.9456 32.909 42.044 33.21 42.044C33.5111 42.044 33.803 41.9456 34.0367 41.7653C34.2704 41.5851 34.4316 41.3339 34.4934 41.0541C35.1538 38.0625 37.6157 35.7242 40.7655 35.0972C41.0602 35.0386 41.3246 34.8854 41.5144 34.6635C41.7042 34.4415 41.8078 34.1643 41.8078 33.8784C41.8078 33.5924 41.7042 33.3152 41.5145 33.0933C41.3247 32.8713 41.0603 32.7181 40.7656 32.6595ZM33.2102 37.4181C32.2965 35.9626 31.0156 34.7461 29.4832 33.8783C31.0156 33.0105 32.2965 31.794 33.2102 30.3385C34.1239 31.794 35.4047 33.0105 36.9372 33.8783C35.4048 34.7462 34.1239 35.9627 33.2102 37.4181Z" fill="white"></path>
        <path d="M34.1231 9.79747C33.5005 8.91862 32.7045 8.16261 31.7792 7.57118C32.7045 6.97978 33.5005 6.2238 34.1231 5.34497C34.7458 6.22382 35.5418 6.97983 36.4671 7.57126C35.5418 8.16262 34.7458 8.91861 34.1231 9.79747Z" fill="white"></path>
        <path d="M33.2102 37.4181C32.2965 35.9626 31.0156 34.7461 29.4832 33.8783C31.0156 33.0105 32.2965 31.794 33.2102 30.3385C34.1239 31.794 35.4047 33.0105 36.9372 33.8783C35.4048 34.7462 34.1239 35.9627 33.2102 37.4181Z" fill="white"></path>
       </svg>