<svg xmlns="http://www.w3.org/2000/svg" width="186" height="60" viewBox="0 0 186 60" fill="none">
        <path d="M66.3722 42.7247V32.9136H57.8687V42.7247H53.5391V19.4602H57.8687V29.0296H66.3722V19.4602H70.7019V42.7247H66.3722ZM86.5744 42.7247H83.1367L82.8249 41.5736C81.339 42.5534 79.6049 43.0762 77.8328 43.0762C74.7674 43.0762 73.4599 40.9453 73.4599 38.0103C73.4599 34.5525 74.9406 33.2256 78.348 33.2256H82.3746V31.4417C82.3746 29.5569 81.8594 28.8934 79.175 28.8934C77.6137 28.9043 76.0577 29.0736 74.5293 29.3987L74.0141 26.1518C75.8871 25.6258 77.8207 25.3552 79.7638 25.3477C85.0287 25.3477 86.5787 27.2326 86.5787 31.4989L86.5744 42.7247ZM82.3746 36.2968H79.2789C77.9021 36.2968 77.5254 36.679 77.5254 37.9751C77.5254 39.1614 77.9021 39.6887 79.214 39.6887C80.325 39.6711 81.4135 39.3679 82.379 38.8099L82.3746 36.2968ZM94.7012 43.0718C92.7355 43.0389 90.7863 42.7089 88.9168 42.092L89.5013 38.8451C91.1249 39.3165 92.8048 39.5635 94.4934 39.5788C96.3508 39.5788 96.6279 39.1395 96.6279 37.8653C96.6279 36.8196 96.4201 36.2924 93.701 35.6289C89.6052 34.614 89.1246 33.5683 89.1246 30.2862C89.1246 26.8635 90.6053 25.3609 95.3896 25.3609C97.0825 25.3627 98.7689 25.5617 100.416 25.954L99.9834 29.3416C98.4615 29.056 96.9197 28.8934 95.3723 28.8539C93.5495 28.8539 93.2378 29.2932 93.2378 30.3214C93.2378 31.6834 93.3417 31.7888 95.6148 32.382C100.308 33.643 100.758 34.2713 100.758 37.7467C100.758 41.0463 99.7582 43.0718 94.7012 43.0718ZM113.254 42.7247V30.8618C113.254 29.9523 112.877 29.4997 111.912 29.4997C110.881 29.4997 109.054 30.128 107.539 30.9321V42.7247H103.339V18.7616L107.539 18.1684V27.0041C109.439 26.0138 111.531 25.4532 113.665 25.3609C116.453 25.3609 117.449 27.3512 117.449 30.3917V42.7247H113.254ZM120.549 23.3047V18.3793H124.749V23.3047H120.549ZM120.549 42.7247V25.7124H124.749V42.7247H120.549ZM127.676 25.853C127.676 21.5911 130.118 19.1131 135.833 19.1131C137.933 19.1131 140.025 19.371 142.063 19.882L141.587 23.6869C139.731 23.3297 137.848 23.1315 135.959 23.0938C132.962 23.0938 132.001 24.1438 132.001 26.6087V35.5498C132.001 38.0279 132.967 39.0648 135.959 39.0648C137.848 39.027 139.731 38.8288 141.587 38.4716L142.068 42.281C140.029 42.7919 137.937 43.0498 135.837 43.0498C130.122 43.0498 127.68 40.5718 127.68 36.3099L127.676 25.853ZM150.679 43.0718C144.93 43.0718 143.384 39.86 143.384 36.3671V32.07C143.384 28.5771 144.934 25.3653 150.679 25.3653C156.425 25.3653 157.975 28.5771 157.975 32.07V36.3671C157.962 39.86 156.416 43.0718 150.679 43.0718ZM150.679 29.012C148.441 29.012 147.584 30.027 147.584 31.947V36.5077C147.584 38.4277 148.45 39.4426 150.679 39.4426C152.909 39.4426 153.775 38.4277 153.775 36.5077V31.9294C153.766 30.0094 152.905 28.9945 150.679 28.9945V29.012ZM169.115 29.2757C167.574 29.9844 166.089 30.8134 164.673 31.7537V42.7379H160.473V25.7124H164.019L164.296 27.5973C165.662 26.6588 167.144 25.9066 168.704 25.3609L169.115 29.2757ZM185.04 37.0657C185.04 40.8398 183.386 43.0718 179.498 43.0718C177.993 43.0555 176.494 42.8908 175.021 42.5797V49.6096L170.821 50.2028V25.7124H174.159L174.592 27.1447C176.122 25.9848 177.982 25.3609 179.892 25.3653C183.264 25.3653 185.053 27.3908 185.053 31.2704L185.04 37.0657ZM175.025 38.9857C176.247 39.2581 177.493 39.4057 178.744 39.4251C180.26 39.4251 180.844 38.6913 180.844 37.1535V31.1562C180.844 29.759 180.329 28.9901 178.779 28.9901C177.389 29.041 176.06 29.585 175.025 30.5279V38.9857Z" fill="white"></path>
        <path d="M19.8835 5L0 16.6408V44.5947L7.47061 48.9712V21.0174L19.8835 13.7425" fill="white"></path>
        <path d="M27.8175 5V27.2628H19.8839V18.9532L12.4133 23.3297V51.8537L19.8839 56.2408V34.0414H27.8175V42.2929L35.2881 37.9216V9.37652" fill="white"></path>
        <path d="M27.8173 56.25L47.7007 44.6092V16.6553L40.2301 12.2788V40.2327L27.8173 47.5075" fill="white"></path>
       </svg>