<svg xmlns="http://www.w3.org/2000/svg" width="162" height="49" viewBox="0 0 162 49" fill="none">
        <g clip-path="url(#clip0_1_255)">
         <path d="M9.01658 7.43018H-0.160156V16.1555H9.01658V7.43018Z" fill="white"></path>
         <path d="M37.0185 7.43018C33.4065 7.43018 29.9635 8.99359 27.5742 11.716L9.01658 32.8469V19.4881H-0.160156V41.4564H7.9088C11.3166 41.4564 14.5649 39.9852 16.8227 37.4095L34.3101 17.499C35.0588 16.6428 36.1431 16.1555 37.2767 16.1555H38.7788V32.7358H26.68L34.3406 41.4611H47.9532V7.43018H37.0185Z" fill="white"></path>
         <path d="M61.0039 7.43018H65.6908V22.1206H61.0039V7.43018Z" fill="white"></path>
         <path d="M100.984 7.43018H105.671V22.1206H100.984V7.43018Z" fill="white"></path>
         <path d="M79.4285 7.43018V16.6404L73.385 7.43018H68.9492V22.123H72.6199V12.9151L78.6681 22.123H83.1016V7.43018H79.4285Z" fill="white"></path>
         <path d="M96.1463 16.5743L97.1578 13.8212H91.0298V10.1882H98.1201V7.43506H88.0374C87.1033 7.43506 86.3476 8.19903 86.3476 9.13802V22.1255H91.0345V16.5719H96.1463V16.5743Z" fill="white"></path>
         <path d="M147.15 7.43018V10.1833H142.627V22.1206H138.104V10.1833H133.629V7.43018H147.154H147.15Z" fill="white"></path>
         <path d="M126.453 7.43018H131.14V22.1206H126.453V7.43018Z" fill="white"></path>
         <path d="M119.501 7.43018V16.6404L113.453 7.43018H109.02V22.123H112.693V12.9151L118.736 22.123H123.17V7.43018H119.501Z" fill="white"></path>
         <path d="M154.316 19.3699H161.709V22.1231H151.319C150.385 22.1231 149.629 21.3591 149.629 20.4201V9.13558C149.629 8.19422 150.387 7.43262 151.319 7.43262H161.401V10.1857H154.311V13.5633H160.439L159.428 16.3164H154.313V19.3676L154.316 19.3699Z" fill="white"></path>
         <path d="M119.486 38.7034L118.472 41.4612H109.922C109.023 41.4612 108.293 40.7256 108.293 39.8198V26.7637H112.82V38.7057H119.483H119.486V38.7034Z" fill="white"></path>
         <path d="M89.1472 26.7612V29.5191H84.7794V41.4611H80.2521V29.5191H75.9336V26.7612H89.1472Z" fill="white"></path>
         <path d="M100.923 26.7612H105.45V41.4611H100.923V35.6285H95.5391V41.4611H91.0117V26.7612H95.5391V32.8706H100.923C100.923 32.873 100.923 26.7612 100.923 26.7612Z" fill="white"></path>
         <path d="M125.902 38.703H133.217V41.4609H122.905C121.971 41.4609 121.215 40.6969 121.215 39.7579V28.471C121.215 27.5297 121.973 26.7681 122.905 26.7681H132.915V29.5259H125.902V32.9058H131.95L130.936 35.6637H125.899V38.7196L125.902 38.703Z" fill="white"></path>
         <path d="M148.089 26.7612V29.5191H143.721V41.4611H139.193V29.5191H134.875V26.7612H148.089Z" fill="white"></path>
         <path d="M154.882 38.703H162.198V41.4609H151.885C150.951 41.4609 150.195 40.6969 150.195 39.7579V28.471C150.195 27.5297 150.953 26.7681 151.885 26.7681H161.895V29.5259H154.882V32.9058H160.93L159.917 35.6637H154.88V38.7196L154.882 38.703Z" fill="white"></path>
         <path d="M74.18 26.7613H67.7751C66.1486 26.7613 64.67 27.698 63.9682 29.1739L58.1172 41.4565H61.3514C62.3089 41.4565 63.1797 40.8983 63.5904 40.0279L68.5191 29.5145H69.648V41.4565H74.1753V26.7566L74.18 26.7613Z" fill="white"></path>
         <path d="M69.8449 34.8479H64.4609V37.6058H69.8449V34.8479Z" fill="white"></path>
        </g>
        <defs>
         <clipPath id="clip0_1_255">
          <rect width="162" height="49" fill="white"></rect>
         </clipPath>
        </defs>
       </svg>