<svg xmlns="http://www.w3.org/2000/svg" width="133" height="51" viewBox="0 0 133 51" fill="none">
        <path d="M68.4182 6.83564L60.0741 11.3262L15.2607 35.4755L12.5076 36.9557L20.6648 25.2802L21.8544 17.5465L68.4182 6.83564ZM0 0L25.6271 3.47603L45.2043 6.12048L54.432 7.38449L56.7092 7.68386L21.5655 15.5008L21.2086 15.2513L9.39773 6.75248L0 0Z" fill="white"></path>
        <path d="M104.633 24.1327L100.997 44.1739C100.606 46.4026 100.368 46.9015 95.5416 50.5772L94.386 49.0304C98.0907 46.07 98.5666 45.7373 98.9064 43.7581L102.39 24.4321L104.633 24.1327ZM114.864 23.9331C117.923 23.9331 119.86 25.4466 119.86 28.2075C119.86 31.1679 117.855 32.7479 112.689 34.1616C109.174 35.1098 108.152 35.3903 108.087 35.4081L108.084 35.4089C108.083 35.409 108.083 35.409 108.083 35.409L107.607 37.9204C107.573 38.2697 107.539 38.6023 107.539 38.9183C107.539 40.4651 108.151 41.2634 110.785 41.2634C112.961 41.2634 115.119 40.5482 117.447 39.4838L117.991 41.1137C115.714 42.2946 113.08 43.1261 110.53 43.1261C106.996 43.1261 105.381 41.7623 105.381 38.9682C105.381 38.4027 105.466 37.7874 105.585 37.1554L106.69 30.9351C107.556 26.2449 110.021 23.9331 114.864 23.9331ZM76.1854 23.9165C78.0037 23.9165 81.3685 24.482 83.3059 25.0973L80.128 42.727H76.2193L76.1854 40.6813C74.5709 42.1282 72.5486 43.1095 70.0335 43.1095C66.7876 43.1095 65.649 41.4131 65.649 38.9017C65.649 38.2863 65.734 37.6543 65.853 36.9724L66.8216 31.6004C67.7053 26.5942 68.9119 23.9165 76.1854 23.9165ZM127.932 19.4925L127.083 24.299H132.742L132.317 26.1119H126.743L124.313 39.7C124.262 39.9661 124.228 40.1823 124.228 40.3819C124.228 41.0971 124.601 41.28 125.502 41.28C126.556 41.28 127.864 40.9806 129.258 40.4152L129.802 41.8455C128.357 42.6438 126.743 43.0929 125.111 43.0929C123.208 43.1095 122.001 42.3112 122.001 40.648C122.001 40.4152 122.035 40.1823 122.086 39.9328L124.568 26.1119H120.965L121.271 24.299H124.907L125.723 19.7918L127.932 19.4925ZM61.6214 23.8999C64.2045 23.8999 65.0712 25.563 65.0712 27.5755C65.0712 28.2241 65.0033 28.8229 64.8673 29.3883L62.4711 42.727H57.8318L60.1939 29.5879C60.2279 29.3883 60.2279 29.1721 60.2279 29.089C60.2279 28.6066 59.99 28.3073 59.2593 28.3073C58.0187 28.3073 55.3846 29.4382 53.6512 30.4694L51.442 42.7436H46.8026L49.1648 29.6045C49.1988 29.405 49.1988 29.1888 49.1988 29.1056C49.1988 28.6233 48.9608 28.3239 48.2301 28.3239C46.9895 28.3239 44.3555 29.4549 42.6221 30.486L40.4128 42.7602H35.7734L38.2716 28.9725L42.9789 26.2117C45.4601 24.8811 48.4 23.8999 50.5923 23.8999C52.5636 23.8999 53.5323 24.8811 53.8891 26.2449C56.5572 24.7314 59.4632 23.8999 61.6214 23.8999ZM91.0382 23.9997L87.6734 42.7436H83.034L86.2798 24.6317L91.0382 23.9997ZM100.215 16.1162L95.4227 42.727H90.7833L95.4566 16.7482L100.215 16.1162ZM75.4886 27.7252C72.5146 27.7252 71.9198 28.9393 71.512 31.3509L70.3394 37.8206C70.3054 38.0535 70.3054 38.1699 70.3054 38.2697C70.3054 38.9516 70.7303 39.2509 71.58 39.2509C73.0415 39.2509 75.1827 37.8871 76.6102 36.4901L78.1567 27.9913C77.307 27.8416 76.4573 27.7252 75.4886 27.7252ZM114.643 25.7127C111.278 25.7127 109.494 27.4258 108.831 31.0515L108.406 33.3966C108.406 33.3966 109.137 33.2136 112.774 32.2656C116.308 31.3675 117.736 30.1201 117.736 28.141C117.736 26.4778 116.614 25.7127 114.643 25.7127ZM92.4657 16.1162L91.548 21.272L86.7897 21.9539L87.7073 16.7482L92.4657 16.1162ZM105.976 16.4488L105.194 20.7232L102.985 21.0226L103.733 16.7482L105.976 16.4488Z" fill="white"></path>
       </svg>