<svg xmlns="http://www.w3.org/2000/svg" width="44" height="44" viewBox="0 0 44 44" fill="none">
        <path d="M20.168 31.1663H12.8346C10.2985 31.1663 8.13703 30.2723 6.35014 28.4842C4.56325 26.6961 3.66919 24.5346 3.66797 21.9997C3.66675 19.4648 4.5608 17.3033 6.35014 15.5152C8.13947 13.7271 10.301 12.833 12.8346 12.833H20.168V16.4997H12.8346C11.3069 16.4997 10.0082 17.0344 8.9388 18.1038C7.86936 19.1733 7.33464 20.4719 7.33464 21.9997C7.33464 23.5275 7.86936 24.8261 8.9388 25.8955C10.0082 26.965 11.3069 27.4997 12.8346 27.4997H20.168V31.1663ZM14.668 23.833V20.1663H29.3346V23.833H14.668ZM23.8346 31.1663V27.4997H31.168C32.6957 27.4997 33.9944 26.965 35.0638 25.8955C36.1332 24.8261 36.668 23.5275 36.668 21.9997C36.668 20.4719 36.1332 19.1733 35.0638 18.1038C33.9944 17.0344 32.6957 16.4997 31.168 16.4997H23.8346V12.833H31.168C33.7041 12.833 35.8662 13.7271 37.6543 15.5152C39.4424 17.3033 40.3359 19.4648 40.3346 21.9997C40.3334 24.5346 39.4394 26.6967 37.6525 28.486C35.8656 30.2753 33.7041 31.1688 31.168 31.1663H23.8346Z" fill="white"></path>
       </svg>