<svg xmlns="http://www.w3.org/2000/svg" width="244" height="37" viewBox="0 0 244 37" fill="none">
        <g clip-path="url(#clip0_1_237)">
         <path d="M177.63 34.6495C177.021 34.6495 176.151 34.5625 175.455 34.3884L175.542 33.5178C176.151 33.6919 176.934 33.779 177.456 33.779C178.326 33.779 178.935 33.6048 179.022 33.0825C179.022 32.5601 178.5 32.386 177.63 32.2119C175.89 31.8637 175.542 31.2543 175.542 30.5578C175.542 29.339 176.586 28.9907 177.891 28.9907C178.5 28.9907 179.37 29.0778 179.979 29.2519L179.892 30.1225C179.283 29.9484 178.587 29.8613 178.065 29.8613C177.282 29.8613 176.76 30.0354 176.76 30.4707C176.76 30.819 176.934 31.0801 178.239 31.3413C179.979 31.6895 180.239 32.4731 180.239 32.9954C180.239 34.3013 179.109 34.6495 177.63 34.6495ZM169.801 31.1672H172.933C173.193 30.3837 172.846 29.7743 171.628 29.7743C170.845 29.8613 169.975 30.2095 169.801 31.1672ZM171.802 33.779C172.498 33.779 173.106 33.6919 173.889 33.3437L174.063 34.2143C173.541 34.4754 172.585 34.6495 171.628 34.6495C169.54 34.6495 168.583 33.3437 168.583 31.7766C168.583 29.8613 169.975 28.9037 171.541 28.9037C173.628 28.9037 174.498 29.9484 173.802 31.9507H169.627C169.801 32.9954 170.584 33.779 171.802 33.779ZM162.842 29.7743C163.538 29.339 164.234 28.9037 165.191 28.9037C166.582 28.9037 167.104 29.6872 167.104 30.9931V34.5625H166.061V31.0801C166.061 30.2095 165.626 29.8613 164.843 29.8613C164.234 29.8613 163.538 30.2095 162.842 30.6448V34.4754H161.798V28.9907H162.842V29.7743ZM158.928 29.0778H159.971V34.5625H158.928V29.0778ZM156.057 27.1625H157.101V34.5625H156.057V27.1625ZM152.49 29.7743C152.577 29.7743 152.577 29.7743 152.49 29.7743C153.186 29.339 153.882 28.9037 154.752 28.9037V29.8613C154.143 29.8613 153.186 30.2095 152.49 30.6448V34.4754H151.447V28.9907H152.49V29.7743ZM148.576 29.0778H149.62V34.5625H148.576V29.0778ZM144.053 28.3813L142.835 31.6896H145.27L144.053 28.3813ZM144.749 27.1625L147.532 34.5625H146.314L145.618 32.6472H142.574L141.878 34.5625H140.66L143.444 27.1625H144.749ZM148.576 27.1625H149.62V28.2072H148.576V27.1625ZM158.928 27.1625H159.971V28.2072H158.928V27.1625ZM214.6 6.96484H216.339V9.14131H214.6V6.96484ZM244.001 6.96484V22.2001H242.262V21.3295H242.175C240.957 22.2001 239.739 22.4613 238.521 22.4613C234.781 22.4613 232.867 19.7625 232.867 16.6284C232.867 13.3201 234.955 10.6213 238.608 10.6213C239.826 10.6213 241.044 10.8825 242.175 11.3178H242.262V6.96484H244.001ZM242.262 20.0237V12.7978C241.044 12.3625 239.913 12.1013 238.869 12.1013C236.607 12.1013 234.607 13.6684 234.607 16.5413C234.607 19.5013 236.52 20.9813 238.869 20.9813C240 20.9813 240.957 20.7201 242.262 20.0237ZM221.124 12.3625C222.863 11.4048 224.342 10.6213 226.256 10.6213C229.126 10.6213 230.257 12.1884 230.257 14.8001V22.2001H228.518V14.8872C228.518 12.8848 227.561 12.1013 225.647 12.1013C224.342 12.1013 222.776 12.7978 221.124 13.8425V22.2001H219.384V10.7954H221.124V12.3625ZM214.6 10.7954H216.339V22.2001H214.6V10.7954ZM199.725 22.2872H197.463L193.201 10.7954H195.114L198.594 20.6331L201.986 10.7954H203.9L207.38 20.6331L210.772 10.7954H212.686L208.51 22.2872H206.249L202.856 13.4072L199.725 22.2872ZM191.374 6.96484V22.2001H189.634V21.3295H189.547C188.329 22.2001 187.111 22.4613 185.894 22.4613C182.153 22.4613 180.239 19.7625 180.239 16.6284C180.239 13.3201 182.327 10.6213 185.981 10.6213C187.198 10.6213 188.416 10.8825 189.547 11.3178H189.634V6.96484H191.374ZM189.634 20.0237V12.7978C188.416 12.3625 187.285 12.1013 186.242 12.1013C183.98 12.1013 181.979 13.6684 181.979 16.5413C181.979 19.5013 183.893 20.9813 186.242 20.9813C187.372 20.9813 188.416 20.7201 189.634 20.0237ZM174.237 12.3625C174.324 12.3625 174.324 12.4495 174.237 12.3625C175.803 11.4048 177.282 10.6213 179.196 10.6213V12.2754C177.891 12.2754 175.89 12.8848 174.237 13.9295V22.2872H172.498V10.7954H174.237V12.3625ZM159.797 16.5413C159.797 18.979 161.189 20.9813 163.973 20.9813C166.756 20.9813 168.148 18.8919 168.148 16.5413C168.148 14.1907 166.756 12.1013 163.973 12.1013C161.189 12.0143 159.797 14.1907 159.797 16.5413ZM158.058 16.5413C158.058 13.3201 160.058 10.6213 163.973 10.6213C167.974 10.6213 169.888 13.3201 169.888 16.5413C169.888 19.7625 167.887 22.4613 163.973 22.4613C159.971 22.4613 158.058 19.6754 158.058 16.5413ZM153.186 22.2001L144.836 9.75073V22.2001H143.009V6.96484H145.184L153.534 19.4143V6.96484H155.361V22.2001H153.186Z" fill="white"></path>
         <path d="M101.949 37H65.7626L45.5815 2.17647L25.4873 37H0L14.266 12.3624C18.1804 5.48471 26.8791 0 33.6642 0H69.851L89.9451 34.9106L110.126 0H135.614L121.348 24.6376C117.433 31.5153 108.734 37 101.949 37Z" fill="white"></path>
        </g>
        <defs>
         <clipPath id="clip0_1_237">
          <rect width="244" height="37" fill="white"></rect>
         </clipPath>
        </defs>
       </svg>