<svg xmlns="http://www.w3.org/2000/svg" width="166" height="33" viewBox="0 0 166 33" fill="none">
        <path d="M29.9526 17.6436L29.9746 17.6453L32.2691 17.8778C32.4301 17.8946 32.5781 17.9708 32.6826 18.09L32.6996 18.1102L32.6778 18.1207C32.7851 18.2519 32.8324 18.4198 32.8086 18.5857C32.3073 22.449 30.4183 26.0178 27.4732 28.6655C24.4173 31.413 20.4033 32.9395 16.2353 32.9395C14.211 32.9427 12.2039 32.5814 10.3161 31.8743L10.2132 31.8353C10.0587 31.78 9.93455 31.6661 9.86883 31.5205L9.85894 31.4973C9.79458 31.3523 9.791 31.1891 9.84821 31.0422L10.7539 28.9003C10.8766 28.5975 11.2244 28.445 11.5385 28.5523L11.5594 28.5599C16.1886 30.2926 21.4316 29.3167 25.0697 26.0452C27.3854 23.9826 28.8786 21.1961 29.2879 18.1736C29.3313 17.8614 29.6106 17.6344 29.9307 17.6427L29.9526 17.6436ZM84.1415 8.55335C86.098 8.55335 87.628 9.13197 88.6051 10.2432L88.6378 10.2809V9.3405C88.6509 9.07802 88.8606 8.86588 89.1282 8.84026L89.1501 8.8386H91.7606C92.0292 8.85659 92.2428 9.06152 92.266 9.31947L92.2675 9.3405V23.3879C92.3519 25.3687 91.7238 27.3164 90.4908 28.8981C89.0846 30.5569 86.9483 31.3969 84.1415 31.3969C80.2395 31.3969 77.1602 29.0037 76.6533 25.5855C76.6282 25.3388 76.7833 25.1094 77.0243 25.032L77.0458 25.0256L79.5963 24.4445C79.6096 24.4416 79.623 24.4391 79.6364 24.4372C79.9164 24.3974 80.1766 24.5852 80.2176 24.8566C80.4505 26.7739 82.1506 28.2043 84.1415 28.1584C87.1576 28.1584 88.5766 26.6723 88.6047 23.567L88.6051 23.4724V22.2415C87.4745 23.4707 85.8395 24.1499 84.1415 24.0958C79.8034 24.0958 76.6589 20.8309 76.6589 16.3404C76.6191 14.32 77.353 12.3569 78.7189 10.8303C80.1062 9.35282 82.0808 8.52372 84.1415 8.55335ZM5.57593 25.6383L5.60827 25.6381L5.64074 25.6384C6.68206 25.6499 7.52048 26.4661 7.5318 27.4719L7.53189 27.5034C7.53189 27.5138 7.53176 27.5243 7.53157 27.5347C7.51344 28.5645 6.63766 29.3852 5.57531 29.3677C4.51295 29.3501 3.66643 28.5012 3.68438 27.4714C3.70214 26.4626 4.5429 25.6545 5.57593 25.6383ZM129.33 8.35789L129.464 8.35884C134.127 8.42128 137.017 11.568 137.017 16.6045C137.017 16.871 137.002 17.1373 136.973 17.4023C136.949 17.6459 136.744 17.8339 136.493 17.8454L136.472 17.846H125.386C125.455 20.1029 127.379 21.8886 129.709 21.8558C131.514 21.9658 133.159 20.853 133.676 19.1721C133.771 18.9308 134.039 18.801 134.293 18.8702L134.313 18.8763L136.526 19.6317C136.648 19.6698 136.748 19.7538 136.805 19.8643L136.815 19.8853C136.876 20.0017 136.886 20.1368 136.843 20.2604C135.815 23.2101 132.919 25.1618 129.709 25.0679C127.604 25.0882 125.578 24.2911 124.084 22.8543C122.453 21.191 121.583 18.961 121.67 16.6679C121.67 11.5163 125.489 8.42024 129.219 8.35883L129.33 8.35789ZM66.6036 8.3579H66.6091C71.3561 8.3579 74.3045 11.5171 74.3045 16.6045C74.3041 16.871 74.2895 17.1373 74.2608 17.4023C74.2388 17.6473 74.0319 17.8365 73.7805 17.8457L73.7594 17.846H62.6743C62.7426 20.1091 64.6772 21.8974 67.0124 21.8559C68.8188 21.9678 70.465 20.8542 70.98 19.1721C71.0723 18.9289 71.3427 18.7982 71.597 18.87L71.6176 18.8763L73.8303 19.6317C73.9596 19.6722 74.0648 19.7645 74.1191 19.8853C74.1709 20.0053 74.1709 20.1404 74.1191 20.2604C73.0922 23.2082 70.1989 25.1594 66.9906 25.0679C64.8823 25.091 62.8524 24.2937 61.3553 22.8543C59.7268 21.1898 58.8568 18.9606 58.941 16.6679C58.941 11.4643 62.8378 8.3579 66.6036 8.3579ZM49.8179 8.35255C51.9488 8.35255 53.671 8.85445 54.9463 9.84231C55.8086 10.5085 56.4477 11.4075 56.7829 12.4258L56.7839 12.4298C56.8277 12.6054 56.7212 12.7822 56.5446 12.8331L56.5267 12.8378L53.8835 13.6831C53.7662 13.7281 53.6356 13.7281 53.5184 13.6831C53.4183 13.6378 53.3429 13.5531 53.3113 13.4507L53.2972 13.4002C53.0564 12.566 52.2694 11.2265 49.8179 11.2265C48.0739 11.2265 47.0275 12.1986 47.0275 13.139L47.0279 13.1762C47.041 13.7877 47.384 14.5552 48.8881 14.847L48.935 14.8559L51.8453 15.3841C55.0609 16.0118 56.9145 17.706 56.9512 20.0671L56.9518 20.1388L56.9409 20.0967L56.9402 20.1683C56.8934 22.5351 54.5318 25.0256 50.183 25.0256C45.0873 25.0256 43.0872 22.2309 42.7166 20.5827C42.6924 20.4102 42.8009 20.2473 42.9707 20.1967L42.9891 20.1917L45.7141 19.3676C45.7628 19.3599 45.8125 19.3599 45.8612 19.3676C45.9305 19.3663 45.999 19.3806 46.0615 19.409L46.0846 19.4204C46.1847 19.4669 46.2586 19.5539 46.2863 19.6581C46.6297 21.243 48.1066 22.1887 50.2321 22.1887C52.2104 22.1887 53.1096 21.1849 53.1096 20.2762C53.1096 19.3775 52.326 18.7113 50.9749 18.4362L50.9297 18.4272L47.8723 17.8513C45.0219 17.3283 43.2453 15.6113 43.2453 13.3766C43.2453 10.6559 46.2591 8.35255 49.8179 8.35255ZM159.732 3.95188H162.114C162.395 3.96823 162.615 4.18916 162.626 4.45976L162.626 4.48015V8.81748H165.492C165.771 8.83648 165.989 9.05643 166 9.325L166 9.34575V11.6491L166 11.6692C165.992 11.9274 165.78 12.1372 165.514 12.1504L165.492 12.151H162.626V19.8589C162.626 21.1373 163.149 21.6657 164.495 21.6657C164.768 21.6611 165.04 21.641 165.31 21.6056L165.411 21.5916C165.56 21.5673 165.711 21.6079 165.825 21.7026C165.928 21.7952 165.99 21.9224 165.999 22.0576L166 22.083V24.2543C166.002 24.4755 165.853 24.6715 165.634 24.7351C165.007 24.9054 164.359 24.9909 163.707 24.9894L163.618 24.9886C160.774 24.9886 159 23.2333 158.965 20.3943L158.964 20.3079V12.1827H156.484C156.214 12.1673 155.997 11.9617 155.973 11.702L155.972 11.6808V9.36687C155.971 9.09388 156.185 8.86669 156.463 8.8402L156.484 8.8386L157.151 8.83852L157.222 8.83729C158 8.81562 159.195 8.50987 159.22 6.82596L159.22 6.77291V4.48015C159.219 4.20716 159.434 3.97997 159.711 3.95349L159.732 3.95188ZM113.443 8.35555L113.506 8.3579H113.5C116.306 8.3579 119.138 10.2529 119.195 14.3916L119.196 14.5177V24.3018C119.183 24.5643 118.972 24.7764 118.705 24.8021L118.683 24.8037H116.073C115.802 24.7882 115.586 24.5827 115.562 24.323L115.56 24.3018V14.8348L115.56 14.7619C115.544 13.5556 115.121 11.6174 112.558 11.6174C110.664 11.6174 109.314 13.0465 109.288 15.1255L109.287 15.1887V24.3018C109.274 24.5643 109.065 24.7764 108.797 24.8021L108.775 24.8037H106.132C105.861 24.7882 105.645 24.5827 105.622 24.323L105.62 24.3018V14.8348L105.62 14.7619C105.604 13.5556 105.181 11.6174 102.617 11.6174C100.647 11.6174 99.3139 13.0361 99.2875 15.156L99.2871 15.2204V24.3018C99.2734 24.5643 99.0639 24.7764 98.7966 24.8021L98.7748 24.8037H96.164C95.8955 24.7857 95.682 24.5807 95.6589 24.3229L95.6574 24.3018V9.30878C95.6701 9.04816 95.877 8.83676 96.1424 8.80875L96.164 8.80688H98.6767C98.947 8.82232 99.1641 9.02796 99.1874 9.28761L99.1889 9.30878V10.2122C100.319 9.01103 101.926 8.33615 103.603 8.3579C105.545 8.30272 107.358 9.29818 108.307 10.9412C109.436 9.2676 111.385 8.28854 113.443 8.35555ZM152.533 10.2227C153.533 11.4999 154.049 13.0708 153.996 14.672L153.993 14.7396V24.3018C153.98 24.5625 153.773 24.7739 153.508 24.8019L153.486 24.8037H150.844C150.573 24.7882 150.356 24.5827 150.332 24.323L150.331 24.3018V15.2521C150.331 12.8853 149.181 11.6808 147.001 11.6808C146.038 11.6507 145.117 12.0665 144.521 12.8008C143.944 13.6068 143.646 14.5688 143.67 15.5484L143.671 15.6061V24.3018C143.658 24.5643 143.448 24.7764 143.181 24.8021L143.159 24.8037H140.521C140.251 24.7882 140.034 24.5827 140.01 24.323L140.009 24.3018V9.29818C140.022 9.0357 140.232 8.82365 140.499 8.79795L140.521 8.79628H143.099C143.368 8.81428 143.581 9.01929 143.604 9.27716L143.606 9.29818V10.3548C144.712 9.05616 146.371 8.32029 148.108 8.3579C149.8 8.28776 151.432 8.97542 152.533 10.2227ZM0.632202 18.2846H19.3964C19.7412 18.2874 20.0197 18.555 20.0284 18.8867L20.0286 18.908V21.185C20.0315 21.5192 19.7601 21.7937 19.4182 21.8077L19.3963 21.8083H0.632202C0.287322 21.8054 0.00885199 21.5377 0 21.2061V21.1849V18.9079V18.8866C0.00866731 18.5622 0.27543 18.2991 0.609812 18.2851L0.632202 18.2846ZM84.5939 11.7125C82.0216 11.7125 80.3866 13.4876 80.3866 16.3404C80.3866 19.1932 81.9997 20.963 84.5939 20.963C87.0682 20.963 88.7359 19.1034 88.7359 16.3404C88.7359 13.5721 87.0682 11.7125 84.5939 11.7125ZM62.7903 14.7992L62.7833 14.8559H70.5385C70.3497 12.8475 68.8896 11.5951 66.7029 11.5703L66.6364 11.5699C64.7095 11.5395 63.0686 12.9057 62.7981 14.7434L62.7903 14.7992ZM125.524 14.7992L125.517 14.8559H133.273C133.084 12.8475 131.624 11.5951 129.437 11.5703L129.37 11.5699C127.444 11.5395 125.803 12.9057 125.532 14.7434L125.524 14.7992ZM21.7453 0.90885C21.9077 0.965664 22.0394 1.08382 22.1104 1.23641C22.1755 1.39045 22.1755 1.56316 22.1104 1.71711L21.2929 3.83037C21.1796 4.14371 20.8262 4.30907 20.5027 4.20016C16.22 2.75145 11.4678 3.57457 7.96782 6.37141C5.78656 8.14124 4.23776 10.5339 3.54248 13.2076C3.47051 13.4776 3.21971 13.6664 2.93209 13.6672H2.79038L0.544989 13.1442C0.377573 13.1061 0.233807 13.0029 0.147155 12.8589H0.136218C0.0453594 12.715 0.0197469 12.5411 0.0654567 12.3782C0.957124 8.95558 2.95228 5.89814 5.76058 3.65068C10.2261 0.0869973 16.2893 -0.95305 21.7453 0.90885ZM13.4341 10.0378H32.1982C32.5345 10.0405 32.8094 10.2955 32.8295 10.6184L32.8304 10.6401V12.9171C32.8333 13.2514 32.5621 13.5259 32.2201 13.5399L32.1982 13.5405H13.4341C13.0915 13.5348 12.8162 13.2681 12.8075 12.9386L12.8073 12.9171V10.6612C12.8043 10.329 13.0723 10.0555 13.4119 10.0386L13.4341 10.0378ZM26.4601 3.09067L26.4924 3.09043L26.5249 3.0907C27.5662 3.10227 28.4046 3.91848 28.4159 4.9241L28.416 4.95559C28.416 4.9661 28.4159 4.97661 28.4157 4.98703C28.3977 6.01684 27.5218 6.83743 26.4594 6.81994C25.3971 6.80245 24.5506 5.95341 24.5686 4.9237C24.5863 3.91482 25.4271 3.10679 26.4601 3.09067Z" fill="white"></path>
       </svg>