<svg xmlns="http://www.w3.org/2000/svg" width="260" height="38" viewBox="0 0 260 38" fill="none">
        <path fill-rule="evenodd" clip-rule="evenodd" d="M9.62008 19.8391L24.1477 5.32215C25.1348 4.33585 26.4481 3.79351 27.8479 3.79351C29.2468 3.79351 30.5601 4.33533 31.5461 5.32164L32.6779 6.45267L34.9422 4.19009L33.8103 3.05906C32.2202 1.47015 30.1029 0.595093 27.8469 0.595093C25.5919 0.595608 23.4741 1.47066 21.884 3.06009L7.35636 17.5766L9.62008 19.8391Z" fill="white"></path>
        <path fill-rule="evenodd" clip-rule="evenodd" d="M29.0571 10.1442L26.7821 7.88493L12.1863 22.3804C10.1366 24.4159 6.80156 24.4164 4.75239 22.3814C2.7027 20.3459 2.7027 17.0334 4.75239 14.9979L17.3472 2.49065L15.0723 0.231934L2.47795 12.7392C-0.825985 16.0203 -0.825985 21.3596 2.47795 24.6402C4.07555 26.2267 6.20291 27.101 8.46855 27.101C10.7347 27.101 12.8631 26.2262 14.4607 24.6396L29.0571 10.1442Z" fill="white"></path>
        <path fill-rule="evenodd" clip-rule="evenodd" d="M43.498 12.859C41.9009 11.2724 39.7736 10.3986 37.5069 10.3986C35.2407 10.3991 33.1123 11.2729 31.5147 12.86L16.9193 27.3552L19.1932 29.6145L33.7897 15.1187C35.8399 13.0832 39.1744 13.0837 41.2236 15.1182C42.2148 16.1026 42.7606 17.413 42.7606 18.8093C42.7606 20.2061 42.2148 21.517 41.2236 22.5014L28.6292 35.0089L30.9042 37.2676L43.498 24.7606C46.8025 21.4795 46.8025 16.1401 43.498 12.859Z" fill="white"></path>
        <path fill-rule="evenodd" clip-rule="evenodd" d="M36.3567 17.6604L21.8293 32.1774C19.7888 34.2154 16.4701 34.2165 14.4306 32.1779L13.2987 31.0469L11.0345 33.3095L12.1664 34.4405C13.7564 36.0294 15.8737 36.9045 18.1302 36.9045C20.3851 36.904 22.5024 36.0289 24.093 34.4395L38.6204 19.923L36.3567 17.6604Z" fill="white"></path>
        <path fill-rule="evenodd" clip-rule="evenodd" d="M59.3921 22.5298C59.5795 23.4561 60.0186 24.1812 60.7085 24.7038C61.3978 25.2273 62.3049 25.4886 63.4298 25.4886C64.5367 25.4886 65.3923 25.2314 65.9972 24.7167C66.6021 24.2025 66.9043 23.525 66.9043 22.6842C66.9043 22.2727 66.8235 21.9254 66.6618 21.6423C66.4997 21.3593 66.2742 21.1193 65.9848 20.9218C65.6945 20.7254 65.3372 20.5574 64.9114 20.4206C64.4857 20.2832 64.0085 20.1375 63.4803 19.9831L62.1011 19.5974C61.283 19.3745 60.5504 19.1045 59.9033 18.7867C59.2557 18.4695 58.7022 18.0962 58.2425 17.6676C57.7828 17.2389 57.4332 16.7459 57.1948 16.1882C56.9565 15.6309 56.837 14.983 56.837 14.2459C56.837 13.474 56.9905 12.7623 57.2973 12.1102C57.6036 11.4592 58.0381 10.9009 58.6003 10.438C59.1625 9.97513 59.8436 9.61072 60.6446 9.34429C61.4447 9.0794 62.3471 8.94619 63.3526 8.94619C65.2435 8.94619 66.7421 9.39612 67.85 10.2965C68.9569 11.1974 69.604 12.4021 69.7919 13.9115L66.7257 14.1686C66.5378 13.3968 66.1635 12.7966 65.6013 12.3679C65.0391 11.9392 64.2556 11.7246 63.2507 11.7246C62.3137 11.7246 61.5811 11.9433 61.0534 12.3808C60.5247 12.8183 60.2606 13.3802 60.2606 14.066C60.2606 14.4605 60.3378 14.7902 60.4912 15.0561C60.6446 15.3225 60.8655 15.5537 61.1553 15.7507C61.4447 15.9482 61.7983 16.1239 62.2153 16.2778C62.6329 16.4323 63.1055 16.5961 63.6337 16.7672L64.9372 17.1788C65.7542 17.4359 66.4914 17.7059 67.1468 17.9889C67.8027 18.272 68.3607 18.611 68.8205 19.0054C69.2807 19.3999 69.6344 19.8716 69.881 20.4206C70.1281 20.9695 70.2517 21.647 70.2517 22.453C70.2517 23.3109 70.0813 24.0957 69.741 24.8069C69.3996 25.5191 68.9234 26.1235 68.3098 26.6206C67.6966 27.1183 66.9687 27.5044 66.1249 27.7781C65.2816 28.0523 64.3493 28.1902 63.3274 28.1902C61.4364 28.1902 59.8606 27.7444 58.6003 26.8523C57.3395 25.9603 56.5647 24.6141 56.2749 22.8128L59.3921 22.5298Z" fill="white"></path>
        <path fill-rule="evenodd" clip-rule="evenodd" d="M83.4417 12.0749C82.5225 12.0749 81.7006 12.2457 80.9771 12.5863C80.253 12.9273 79.64 13.4 79.1383 14.0047C78.6355 14.6099 78.2521 15.3261 77.9881 16.1516C77.7246 16.9787 77.5928 17.8775 77.5928 18.8486C77.5928 19.8202 77.7287 20.7231 78.0014 21.5585C78.2732 22.3933 78.6612 23.1172 79.1635 23.7312C79.6653 24.3442 80.2787 24.8256 81.0028 25.1754C81.7259 25.5242 82.5477 25.6986 83.4674 25.6986C84.3871 25.6986 85.2084 25.533 85.9325 25.2007C86.6556 24.8684 87.269 24.404 87.7713 23.8071C88.2736 23.2111 88.6611 22.4908 88.9334 21.6477C89.2056 20.8041 89.342 19.8795 89.342 18.8744C89.342 17.8858 89.2056 16.9741 88.9334 16.1392C88.6611 15.3049 88.2736 14.5887 87.7713 13.9923C87.269 13.3963 86.6515 12.9273 85.9191 12.5863C85.1873 12.2457 84.3613 12.0749 83.4417 12.0749ZM83.4674 9.30935C84.8466 9.30935 86.107 9.54411 87.2479 10.0136C88.3884 10.4832 89.359 11.14 90.1597 11.9852C90.9595 12.8308 91.5807 13.8421 92.0243 15.0201C92.4669 16.1981 92.6882 17.4869 92.6882 18.8868C92.6882 20.3387 92.454 21.6488 91.9862 22.8179C91.5168 23.9877 90.8494 24.999 89.9806 25.8524L92.4329 28.7464V29.6427H89.3168L87.6051 27.5432C87.0091 27.8161 86.37 28.0292 85.6896 28.183C85.0082 28.3368 84.2759 28.4136 83.4931 28.4136C82.0794 28.4136 80.8067 28.1784 79.6745 27.7093C78.5418 27.2398 77.5794 26.5825 76.7879 25.7373C75.9959 24.8921 75.383 23.8855 74.9491 22.7153C74.5148 21.5461 74.2976 20.2701 74.2976 18.8868C74.2976 17.4869 74.5148 16.2027 74.9491 15.0325C75.383 13.8638 76 12.8561 76.8008 12.011C77.6005 11.1658 78.567 10.5043 79.6997 10.026C80.8325 9.54876 82.0882 9.30935 83.4674 9.30935Z" fill="white"></path>
        <path fill-rule="evenodd" clip-rule="evenodd" d="M105.194 25.5408C106.501 25.5408 107.519 25.1339 108.248 24.3192C108.978 23.5044 109.343 22.2569 109.343 20.576V9.30935H112.55V20.6533C112.55 21.991 112.38 23.1354 112.041 24.0875C111.701 25.0391 111.218 25.8196 110.59 26.4286C109.962 27.0376 109.19 27.4833 108.274 27.7663C107.357 28.0493 106.331 28.1903 105.194 28.1903C104.039 28.1903 103.009 28.0493 102.101 27.7663C101.193 27.4833 100.425 27.0376 99.7977 26.4286C99.17 25.8196 98.6863 25.0391 98.3463 24.0875C98.0068 23.1354 97.8376 21.991 97.8376 20.6533V9.30935H101.045V20.576C101.045 22.2569 101.41 23.5044 102.139 24.3192C102.869 25.1339 103.887 25.5408 105.194 25.5408Z" fill="white"></path>
        <path fill-rule="evenodd" clip-rule="evenodd" d="M121.739 19.9128H127.876L126.866 17.0304C126.468 15.9014 126.149 14.9824 125.908 14.2747C125.666 13.5666 125.45 12.943 125.26 12.4035H124.458C124.354 12.6898 124.25 12.9767 124.147 13.263C124.043 13.5498 123.927 13.8702 123.797 14.2238C123.668 14.5779 123.526 14.9824 123.37 15.4378C123.215 15.8922 123.025 16.4236 122.8 17.0304L121.739 19.9128ZM115.86 26.9422L122.464 9.67236H127.358L133.883 26.9422V27.8271H130.672L128.808 22.6435H120.755L118.891 27.8271H115.86V26.9422Z" fill="white"></path>
        <path fill-rule="evenodd" clip-rule="evenodd" d="M141.109 17.9659H143.905C145.136 17.9659 146.106 17.7443 146.815 17.3021C147.525 16.8594 147.88 16.137 147.88 15.1338C147.88 14.1149 147.521 13.4052 146.803 13.0043C146.085 12.6038 145.119 12.4031 143.905 12.4031H141.109V17.9659ZM151.906 27.8271H148.803L143.187 20.6967H141.109V27.8271H137.929V9.67236H143.905C144.845 9.67236 145.739 9.73554 146.584 9.86188C147.431 9.98823 148.196 10.2791 148.88 10.7341C150.333 11.6776 151.06 13.1021 151.06 15.0059C151.06 15.8323 150.936 16.5527 150.688 17.1681C150.44 17.783 150.111 18.3052 149.701 18.7352C149.29 19.1652 148.816 19.5147 148.278 19.7837C147.739 20.0537 147.179 20.256 146.597 20.3905L151.906 26.9417V27.8271Z" fill="white"></path>
        <path fill-rule="evenodd" clip-rule="evenodd" d="M155.952 9.67236H167.909V12.4535H159.115V17.2071H167.292V19.9378H159.115V25.0455H168.089V27.8271H155.952V9.67236Z" fill="white"></path>
        <path fill-rule="evenodd" clip-rule="evenodd" d="M175.253 22.5298C175.44 23.4561 175.879 24.1812 176.569 24.7038C177.259 25.2273 178.166 25.4886 179.29 25.4886C180.397 25.4886 181.253 25.2314 181.858 24.7167C182.463 24.2025 182.765 23.525 182.765 22.6842C182.765 22.2727 182.685 21.9254 182.522 21.6423C182.361 21.3593 182.135 21.1193 181.845 20.9218C181.556 20.7254 181.198 20.5574 180.773 20.4206C180.346 20.2832 179.869 20.1375 179.341 19.9831L177.962 19.5974C177.144 19.3745 176.411 19.1045 175.764 18.7867C175.116 18.4695 174.563 18.0962 174.104 17.6676C173.644 17.2389 173.294 16.7459 173.056 16.1882C172.817 15.6309 172.698 14.983 172.698 14.2459C172.698 13.474 172.851 12.7623 173.158 12.1102C173.464 11.4592 173.899 10.9009 174.461 10.438C175.023 9.97513 175.704 9.61072 176.505 9.34429C177.305 9.0794 178.208 8.94619 179.213 8.94619C181.104 8.94619 182.603 9.39612 183.711 10.2965C184.817 11.1974 185.465 12.4021 185.652 13.9115L182.586 14.1686C182.399 13.3968 182.024 12.7966 181.462 12.3679C180.9 11.9392 180.116 11.7246 179.111 11.7246C178.174 11.7246 177.442 11.9433 176.914 12.3808C176.386 12.8183 176.122 13.3802 176.122 14.066C176.122 14.4605 176.199 14.7902 176.352 15.0561C176.505 15.3225 176.726 15.5537 177.016 15.7507C177.305 15.9482 177.659 16.1239 178.077 16.2778C178.494 16.4323 178.967 16.5961 179.494 16.7672L180.798 17.1788C181.615 17.4359 182.352 17.7059 183.008 17.9889C183.663 18.272 184.222 18.611 184.681 19.0054C185.141 19.3999 185.495 19.8716 185.742 20.4206C185.989 20.9695 186.113 21.647 186.113 22.453C186.113 23.3109 185.942 24.0957 185.601 24.8069C185.26 25.5191 184.784 26.1235 184.17 26.6206C183.557 27.1183 182.829 27.5044 181.986 27.7781C181.142 28.0523 180.21 28.1902 179.188 28.1902C177.298 28.1902 175.721 27.7444 174.461 26.8523C173.2 25.9603 172.426 24.6141 172.136 22.8128L175.253 22.5298Z" fill="white"></path>
        <path fill-rule="evenodd" clip-rule="evenodd" d="M194.153 18.1175H197.281C197.855 18.1175 198.38 18.0717 198.859 17.9795C199.336 17.8878 199.754 17.7334 200.11 17.5159C200.466 17.2988 200.744 17.0064 200.944 16.6386C201.144 16.2713 201.244 15.8199 201.244 15.285C201.244 14.7337 201.144 14.2707 200.944 13.8947C200.744 13.5187 200.47 13.2222 200.123 13.0047C199.775 12.7871 199.362 12.6328 198.885 12.5411C198.406 12.4494 197.889 12.403 197.334 12.403H194.153V18.1175ZM190.894 9.67236H197.724C198.993 9.67236 200.058 9.81552 200.918 10.1023C201.779 10.3886 202.473 10.7845 203.004 11.2909C203.534 11.7963 203.916 12.3903 204.151 13.0735C204.385 13.7556 204.503 14.4933 204.503 15.2855C204.503 16.23 204.342 17.0512 204.02 17.7507C203.699 18.4502 203.234 19.0274 202.626 19.4828C202.017 19.9378 201.278 20.2791 200.41 20.5068C199.54 20.7346 198.559 20.8482 197.464 20.8482H194.153V27.8271H190.894V9.67236Z" fill="white"></path>
        <path fill-rule="evenodd" clip-rule="evenodd" d="M211.117 19.9128H217.254L216.244 17.0304C215.847 15.9014 215.527 14.9824 215.286 14.2747C215.044 13.5666 214.828 12.943 214.639 12.4035H213.836C213.733 12.6898 213.629 12.9767 213.525 13.263C213.422 13.5498 213.305 13.8702 213.175 14.2238C213.046 14.5779 212.904 14.9824 212.749 15.4378C212.593 15.8922 212.403 16.4236 212.179 17.0304L211.117 19.9128ZM205.239 26.9422L211.842 9.67236H216.736L223.261 26.9422V27.8271H220.051L218.187 22.6435H210.133L208.268 27.8271H205.239V26.9422Z" fill="white"></path>
        <path fill-rule="evenodd" clip-rule="evenodd" d="M242.755 23.0271C242.463 23.736 242.08 24.403 241.607 25.0286C241.134 25.6543 240.562 26.2025 239.891 26.6706C239.221 27.1388 238.442 27.509 237.556 27.7813C236.67 28.0536 235.686 28.1903 234.602 28.1903C233.226 28.1903 231.974 27.9537 230.848 27.4809C229.721 27.0092 228.759 26.355 227.963 25.5202C227.167 24.6844 226.552 23.6896 226.118 22.5335C225.684 21.378 225.468 20.1251 225.468 18.7748C225.468 17.4255 225.684 16.1726 226.118 15.0165C226.552 13.861 227.17 12.861 227.975 12.0171C228.781 11.1742 229.747 10.5112 230.874 10.0309C232 9.54949 233.26 9.30931 234.654 9.30931C236.683 9.30931 238.382 9.77386 239.749 10.7014C241.117 11.629 242.085 12.861 242.652 14.3964L239.376 15.0288C238.928 14.1012 238.304 13.371 237.505 12.8396C236.705 12.3083 235.737 12.0426 234.602 12.0426C233.69 12.0426 232.877 12.2149 232.163 12.5597C231.45 12.9044 230.848 13.3791 230.357 13.9844C229.867 14.5892 229.493 15.3036 229.235 16.1277C228.977 16.9512 228.848 17.8334 228.848 18.7748C228.848 19.7329 228.981 20.6197 229.248 21.4351C229.514 22.251 229.902 22.9563 230.409 23.5534C230.916 24.15 231.531 24.6161 232.254 24.9522C232.976 25.2887 233.802 25.457 234.731 25.457C235.935 25.457 236.928 25.1699 237.711 24.5962C238.494 24.0225 239.1 23.3224 239.53 22.4953L242.755 23.0271Z" fill="white"></path>
        <path fill-rule="evenodd" clip-rule="evenodd" d="M246.963 9.45319H258.989V12.2612H250.144V17.0609H258.368V19.818H250.144V24.9753H259.17V27.7838H246.963V9.45319Z" fill="white"></path>
       </svg>