<svg xmlns="http://www.w3.org/2000/svg" width="237" height="30" viewBox="0 0 237 30" fill="none">
        <path d="M24.4715 0C17.9457 0 13.8672 3.30416 12.2357 9.91249C14.6829 6.60833 17.5379 5.36927 20.8007 6.19531C22.6624 6.66661 23.993 8.03426 25.4658 9.54821C27.8651 12.0144 30.642 14.8687 36.7072 14.8687C43.2329 14.8687 47.3115 11.5646 48.9429 4.95625C46.4958 8.26041 43.6408 9.49947 40.3779 8.67343C38.5163 8.20213 37.1856 6.83448 35.7128 5.32053C33.3135 2.85434 30.5367 0 24.4715 0ZM12.2357 14.8687C5.71001 14.8687 1.63143 18.1729 0 24.7812C2.44715 21.4771 5.30215 20.238 8.56501 21.064C10.4267 21.5353 11.7573 22.903 13.2301 24.4169C15.6294 26.8831 18.4063 29.7375 24.4715 29.7375C30.9972 29.7375 35.0758 26.4333 36.7072 19.825C34.26 23.1291 31.405 24.3682 28.1422 23.5422C26.2805 23.0709 24.9499 21.7032 23.4771 20.1893C21.0778 17.7231 18.3009 14.8687 12.2357 14.8687Z" fill="white"></path>
        <path d="M73.4108 12.5301H69.14V20.9007C69.14 23.1328 70.5866 23.0979 73.4108 22.9584V26.3415C67.6935 27.0391 65.4204 25.4347 65.4204 20.9007V12.5301H62.2518V8.90288H65.4204V4.21831L69.14 3.10224V8.90288H73.4108V12.5301ZM89.6906 8.90288H93.4103V26.3415H89.6906V23.8304C88.3818 25.6788 86.3498 26.7949 83.6634 26.7949C78.9794 26.7949 75.0875 22.784 75.0875 17.6222C75.0875 12.4255 78.9794 8.44947 83.6634 8.44947C86.3498 8.44947 88.3818 9.56555 89.6906 11.3792V8.90288ZM84.2489 23.2026C87.3486 23.2026 89.6906 20.8658 89.6906 17.6222C89.6906 14.3786 87.3486 12.0418 84.2489 12.0418C81.1492 12.0418 78.8072 14.3786 78.8072 17.6222C78.8072 20.8658 81.1492 23.2026 84.2489 23.2026ZM99.6097 6.28708C98.3009 6.28708 97.2333 5.17101 97.2333 3.88055C97.2333 2.55521 98.3009 1.47402 99.6097 1.47402C100.918 1.47402 101.986 2.55521 101.986 3.88055C101.986 5.17101 100.918 6.28708 99.6097 6.28708ZM97.7499 26.3415V8.90288H101.47V26.3415H97.7499ZM105.775 26.3415V0.881104H109.494V26.3415H105.775ZM133.638 8.90288H137.564L132.157 26.3415H128.506L124.924 14.5879L121.308 26.3415H117.657L112.25 8.90288H116.176L119.517 20.9355L123.133 8.90288H126.681L130.262 20.9355L133.638 8.90288ZM142.179 6.28708C140.87 6.28708 139.803 5.17101 139.803 3.88055C139.803 2.55521 140.87 1.47402 142.179 1.47402C143.488 1.47402 144.556 2.55521 144.556 3.88055C144.556 5.17101 143.488 6.28708 142.179 6.28708ZM140.319 26.3415V8.90288H144.039V26.3415H140.319ZM157.402 8.44947C161.26 8.44947 164.015 11.1001 164.015 15.6342V26.3415H160.295V16.0178C160.295 13.3672 158.78 11.9721 156.438 11.9721C153.993 11.9721 152.064 13.4369 152.064 16.9944V26.3415H148.344V8.90288H152.064V11.135C153.2 9.32141 155.06 8.44947 157.402 8.44947ZM181.649 1.92742H185.369V26.3415H181.649V23.8304C180.34 25.6788 178.308 26.7949 175.622 26.7949C170.938 26.7949 167.046 22.784 167.046 17.6222C167.046 12.4255 170.938 8.44947 175.622 8.44947C178.308 8.44947 180.34 9.56555 181.649 11.3792V1.92742ZM176.207 23.2026C179.307 23.2026 181.649 20.8658 181.649 17.6222C181.649 14.3786 179.307 12.0418 176.207 12.0418C173.107 12.0418 170.765 14.3786 170.765 17.6222C170.765 20.8658 173.107 23.2026 176.207 23.2026ZM197.836 26.7949C192.636 26.7949 188.744 22.784 188.744 17.6222C188.744 12.4255 192.636 8.44947 197.836 8.44947C201.212 8.44947 204.139 10.2282 205.517 12.9486L202.314 14.832C201.556 13.1928 199.868 12.1465 197.802 12.1465C194.771 12.1465 192.464 14.4832 192.464 17.6222C192.464 20.7612 194.771 23.0979 197.802 23.0979C199.868 23.0979 201.556 22.0167 202.383 20.4124L205.586 22.2609C204.139 25.0162 201.212 26.7949 197.836 26.7949ZM211.716 13.7159C211.716 16.8898 220.981 14.9715 220.981 21.4238C220.981 24.9115 217.985 26.7949 214.265 26.7949C210.821 26.7949 208.341 25.2254 207.239 22.7143L210.442 20.8309C210.993 22.4004 212.371 23.3421 214.265 23.3421C215.918 23.3421 217.192 22.784 217.192 21.3889C217.192 18.2849 207.928 20.0287 207.928 13.7857C207.928 10.5072 210.717 8.44947 214.23 8.44947C217.055 8.44947 219.397 9.77481 220.602 12.0767L217.468 13.8555C216.848 12.4952 215.643 11.8674 214.23 11.8674C212.887 11.8674 211.716 12.4604 211.716 13.7159ZM227.594 13.7159C227.594 16.8898 236.858 14.9715 236.858 21.4238C236.858 24.9115 233.862 26.7949 230.142 26.7949C226.698 26.7949 224.218 25.2254 223.116 22.7143L226.319 20.8309C226.87 22.4004 228.248 23.3421 230.142 23.3421C231.795 23.3421 233.07 22.784 233.07 21.3889C233.07 18.2849 223.805 20.0287 223.805 13.7857C223.805 10.5072 226.595 8.44947 230.108 8.44947C232.932 8.44947 235.274 9.77481 236.48 12.0767L233.345 13.8555C232.725 12.4952 231.52 11.8674 230.108 11.8674C228.765 11.8674 227.594 12.4604 227.594 13.7159Z" fill="white"></path>
       </svg>