<svg width="20" height="20" viewBox="0 0 22 22" fill="none" xmlns="http://www.w3.org/2000/svg">
                        <path d="M2.466 17.426C3.346 19.3418 5.17933 20.1668 8.25016 20.1668H13.7502C18.3335 20.1668 20.1668 18.3335 20.1668 13.7502V8.25016C20.1668 3.66683 18.3335 1.8335 13.7502 1.8335H8.25016C3.66683 1.8335 1.8335 3.66683 1.8335 8.25016V13.7502" stroke="#404053" strokeWidth="1.5" strokeLinecap="round" strokeLinejoin="round"></path>
                        <path d="M1.8335 11.9169H5.28016C5.97683 11.9169 6.60933 12.311 6.921 12.9344L7.73683 14.5752C8.25016 15.5835 9.16683 15.5835 9.38683 15.5835H12.6227C13.3193 15.5835 13.9518 15.1894 14.2635 14.566L15.0793 12.9252C15.391 12.3019 16.0235 11.9077 16.7202 11.9077H20.1485" stroke="#404053" strokeWidth="1.5" strokeLinecap="round" strokeLinejoin="round"></path>
                        <path d="M12.5215 9.1665H13.2915" stroke="#404053" strokeWidth="1.5" strokeLinecap="round" strokeLinejoin="round"></path>
                        <path d="M8.7085 9.1665H10.1568" stroke="#404053" strokeWidth="1.5" strokeLinecap="round" strokeLinejoin="round"></path>
                        <path d="M9.47852 6.4165H12.531" stroke="#404053" strokeWidth="1.5" strokeLinecap="round" strokeLinejoin="round"></path>
                      </svg>