<svg width="20" height="20" viewBox="0 0 22 22" fill="none" xmlns="http://www.w3.org/2000/svg">
                        <path d="M16.6282 19.8182C15.8216 20.0565 14.8682 20.1665 13.7499 20.1665H8.24991C7.13158 20.1665 6.17825 20.0565 5.37158 19.8182C5.57325 17.4349 8.02075 15.5557 10.9999 15.5557C13.9791 15.5557 16.4266 17.4349 16.6282 19.8182Z" stroke="#404053" strokeWidth="1.5" strokeLinecap="round" strokeLinejoin="round"></path>
                        <path d="M13.7502 1.8335H8.25016C3.66683 1.8335 1.8335 3.66683 1.8335 8.25016V13.7502C1.8335 17.2152 2.8785 19.1127 5.37183 19.8185C5.5735 17.4352 8.021 15.556 11.0002 15.556C13.9793 15.556 16.4268 17.4352 16.6285 19.8185C19.1218 19.1127 20.1668 17.2152 20.1668 13.7502V8.25016C20.1668 3.66683 18.3335 1.8335 13.7502 1.8335ZM11.0002 12.9893C9.18516 12.9893 7.71849 11.5135 7.71849 9.69851C7.71849 7.88351 9.18516 6.41683 11.0002 6.41683C12.8152 6.41683 14.2818 7.88351 14.2818 9.69851C14.2818 11.5135 12.8152 12.9893 11.0002 12.9893Z" stroke="#404053" strokeWidth="1.5" strokeLinecap="round" strokeLinejoin="round"></path>
                        <path d="M14.2816 9.69819C14.2816 11.5132 12.8149 12.989 10.9999 12.989C9.18493 12.989 7.71826 11.5132 7.71826 9.69819C7.71826 7.88319 9.18493 6.4165 10.9999 6.4165C12.8149 6.4165 14.2816 7.88319 14.2816 9.69819Z" stroke="#404053" strokeWidth="1.5" strokeLinecap="round" strokeLinejoin="round"></path>
                      </svg>